<?xml version="1.0" encoding="UTF-8"?>
<svg id="Capa_1" xmlns="http://www.w3.org/2000/svg" version="1.1" viewBox="0 0 445 435">
  <!-- Generator: Adobe Illustrator 29.0.0, SVG Export Plug-In . SVG Version: 2.1.0 Build 186)  -->
  <defs>
    <style>
      .st0 {
        fill: #b87333;
      }
    </style>
  </defs>
  <path class="st0" d="M262,2.4c0,.8.4,1.7.9,2,1.1.7,3.3-1.8,2.4-2.7s-3.3-.7-3.3.7Z"/>
  <path class="st0" d="M194,3.1c-10.4,1.3-21.9,4.1-23.2,5.6-1.8,2.2,1.9,2.7,6,.9,4.3-1.8,26.5-3.8,29.7-2.6,4.6,1.8,5.1,3.6,2.9,12.4-.5,2.2-.4,2.8.7,2.4.8-.2,1.5-1.7,1.7-3.2.2-1.9.8-2.6,2-2.4,3.2.6,2.3,3.5-2.8,8.9-5,5.3-6.4,8.9-3.5,8.9s2-1.1,2.5-2.4c.5-1.4,2.1-3.3,3.5-4.2,1.5-1,3.3-3.5,4.2-5.6.8-2.1,2.2-3.8,3-3.8s1.3.5.8,1.7c-.4,1-1,2.8-1.2,4-.9,3.9,1.8,2.6,3.4-1.7.9-2.2,2.1-3.9,2.7-3.7,1.6.5,1.9,4.6.5,6.3-.9,1.1-.9,1.8-.1,2.6,1.4,1.4,3.2.1,3.2-2.3s.5-1.9,1-1.9c1.8,0,13.4,3.2,16.7,4.6,4,1.8,8.3,1.7,10.7-.1,2.2-1.6,6.6-2,6.6-.6s5.1,2.4,6.1,1.4c1.5-1.5,2.3-9.3.9-9.3s-1.4,1-1.8,2.2c-.5,2.1-.6,2.1-1.3.2-1.9-4.9.7-7.7,5.2-5.4,1.7,1,2,1.8,1.6,4.8-.3,2.1-.8,4.7-1.2,5.9-.5,1.7-.3,2.3.8,2.3,2,0,2.9-1.5,3.7-5.9q.5-3.5,6.5-3.2c3.3.1,6.1.4,6.3.6.2.1-.6,1.9-1.8,3.9-1.1,2-2,4.5-2,5.6,0,3.4,2.6,2.2,3.9-1.8.7-2,2.4-5.1,3.7-6.7q2.4-3,2.4-.3c0,1.5-.4,2.9-.9,3.3-.9.5-4.1,6.2-4.1,7.2s.7.3,1.5.3,2.2-1.4,2.9-3.2c1.2-2.7,2-3.3,5.1-3.5,4.5-.3,5.4,1.6,3.1,6.4-1.6,3.3-1.4,5.3.4,5.3s1.7-1.7,2.7-3.7c2.3-4.6,4.1-5.3,4.5-1.6.4,3.4,3.2,3.8,3.6.5.7-4.9,3.2-1,3.2,5s1.7,3.6,3,.2,3.6-2.5,3.2,1.2c-.2,1.6-.4,3.6-.5,4.4-.4,3.2,1.9,2.1,3.8-1.8,2.1-4.4,4.2-5.7,3.1-2-1.8,6.4-1.9,7.8-.2,7.8s1.6-.7,1.6-1.5,1.1-2,2.5-2.5,2.5-1.4,2.5-2,.5-.8,1-.5c.6.3,1,2.3,1,4.4s.6,4.4,1.3,5c1.7,1.3,2.7.5,2.7-2.2s0-2,2.1-.1c1.6,1.4,1.9,2.6,1.4,5.1-.6,3.6-.1,3.9,4,2.3,2.3-.9,3-.7,4.6,1.2,1,1.3,1.8,3.9,1.9,6,0,4.8,2.5,5.2,3.5.7,1-4.3,2.5-1.9,2.5,3.9s2.3,5.4,2.8.4c.2-1.8.9-3.2,1.7-3.2,1.8,0,2.7,4.1,1.9,9.1-.6,3.7-.5,4.1,1.2,3.7,1.3-.2,2-1.3,2.2-3.6.2-2,.9-3.2,1.8-3.2s1.4,1.4,1.4,5.5.4,5.5,1.4,5.5,1.6-1,1.8-2.3c.2-1.2,1-2.2,1.8-2.2,1.2,0,1.5,1.3,1.5,5.9,0,6.8,1.9,8.6,3.6,3.7,1.5-4.3,2.9-3.9,2.9,1s-.2,4-2,3.4-2-.2-2,1,.6,1.6,2,1.2c1.9-.5,2-.2,1.4,2.9-.5,2.6-.3,3.4.9,3.4s2.7-2.8,2.7-6.8,1.8-2.8,3.1.5c.7,1.9.7,4.1-.2,7.6-.6,2.6-.9,5.1-.6,5.4.9.9,2.7-.7,2.7-2.5s.5-2.4,1-3.2c.9-1.3,1.1-1.3,2,0,1.3,2,1.3,6.3-.1,7.7s-.3,3.2,2,2.6,3.5,2.3,2.6,6c-.5,1.8-.2,2.8,1.2,3.5,1.3.8,1.5,1.4.7,2.2s-.8,2.4-.6,4.1c.6,4,3.6,3.6,4-.6.5-5.2,1.3-7.8,2.2-6.9.4.5.5,3.8.1,7.4-.6,6-.8,6.5-2.9,6.3-1.2-.2-2.2.2-2.2.7s.6,1,1.4,1,1.6.6,1.9,1.2c.3,1,.9,1,2.7,0q2.3-1.4,1.6,4.2c-.8,6.2.6,7.6,2.6,2.8,1.6-3.7,1.8-3.8,2.7-2.3,1,1.5-1.2,10.8-2.8,12.4s-1.4,3.7,0,3.7,1.9-1,3-2.3q1.8-2.2,1.9,1c0,1.7-.5,4.4-1,5.9-.7,1.9-.7,3,.1,4,.9,1.1.9,2.8,0,7-.6,3.1-.8,6-.5,6.6,1,1.5,3.4-1.2,3.4-3.9s1.8-6.5,3.1-5.7c1.7,1,0,9.6-2.3,12.1-2.5,2.6-1.5,5.2,1.1,2.9,1-.9,2.1-1.3,2.4-.9,1.4,1.3.6,6.1-1.3,8.6-3,3.8-2.1,6.9,1,3.2,3.5-4.2,3.5,3.1-.1,9.3-2.3,4-2.3,4.2-.4,4.2s1.9-.9,2.5-2,1.5-1.8,2-1.5c1.2.7-1.7,8.3-4.2,11.1-1.9,2.2-2.4,5.4-.8,5.4s1.5-.9,2.2-2,1.6-2,2-2c1.9,0,.5,6.8-2.7,13.3-1.9,3.9-3.3,7.3-3,7.5.9.9,3.7-.9,4.2-2.8.6-2.2,2.3-2.7,2.3-.7s-.6,2.1-1.4,3.2c-.7,1.1-1.7,3.1-2.1,4.5-1.1,3.9-4.5,7-7.6,7s-4.7,1.6-3.1,3.2,2.3.6,5.2-.6c2.2-.9,4.3-1.6,4.5-1.6,1.2,0,.3,4.5-1.6,9-1.2,2.7-1.9,5.5-1.6,6.2.2.7-.1,2.9-.9,4.8-.7,1.9-2,7.1-2.9,11.5-1.8,9.1-4.4,17.5-5.6,18.9-.5.6-.9,2.1-.9,3.4,0,2.9-4.6,12.2-9.9,20.1-2.3,3.3-4.1,6.6-4.1,7.4s-.7,2-1.5,2.7-1.5,1.8-1.5,2.4-.7,2.1-1.5,3.3c-1.4,2-1.7,2-4.4.7-1.7-.8-4-3-5.1-4.9-1.2-1.9-2.8-3.5-3.6-3.5-2.2,0-1.7,1.6,1.6,5.4,1.7,1.9,2.9,4,2.8,4.8-.2.8.6,1.3,2,1.2,2.3-.1,2.8,1.1,1.3,3.5-1.3,2.1-3.6.7-5.5-3.3-2.2-4.6-4-4.7-3.2-.2.5,2.8.3,3.4-1.4,3.9-1.5.4-2,1.3-2,4.1s.4,3.6,1.5,3.6,1.5-.9,1.5-2.3c0-3.9,1.3-4.8,3.9-2.8q2.4,1.8.1,5.5c-1.5,2.5-3.2,3.9-5.1,4.3-3.2.6-4.5,1.8-2.9,2.8,1.8,1.1,1,3.4-1.7,4.9-1.6.8-4.7,3.3-7,5.5-2.7,2.6-5,4-6.4,3.8-1.6-.1-2.4.6-3.2,3.2-1.3,3.6-3.7,5.4-3.7,2.7s-2.7-1.8-3.3,1.1c-1,4.6-2.3,5.9-4.1,4.4-1.7-1.4-1.5-1.5-3.1,3.4-.3,1.1-1.3,1.3-3.5.9-2.6-.6-3-.4-3,1.4,0,2.9-1.7,3.6-3,1.2-1.5-2.9-3-2.5-3,.9s-.9,6.1-2.1,6.1-.9-1.3-.9-2.9c0-3.1-1.4-4.9-2.5-3.1-.3.5-1.6,1-2.8,1-2.1.1-6.7,5.7-6.7,8.1s-1.1.7-2.4.3c-1.9-.4-2.7,0-3.6,1.7-1.1,2-1.3,2-2.2.6-1.4-2.6-3.2-2-4.5,1.3-1.1,2.8-3.3,4.2-3.3,2s-2.8-.8-3.5,1.7c-.7,2.9-3.2,6.3-4.7,6.3s-.7-1.5-.6-3.3c.4-4.5-2.2-4.2-4.4.6-2.2,4.5-3,4.8-2.1.7.9-4.7-2-3.8-5.4,1.7q-2.8,4.8-3.1,1.5c-.2-2.4-.8-3.2-2.3-3.2s-1.9.7-1.9,1.6c0,1.9-3.8,7.4-5.1,7.4s-.9-1.1-.9-2.3c0-4-1.3-4-4.7,0q-3.3,3.8-2.7.5c.6-2.8.4-3.2-1.4-3.2s-2.3.8-2.7,1.9c-.3,1.1-1.3,2.5-2.1,3.2-1.3,1.1-1.8,1-2.5-.4-.9-1.6-1.2-1.6-3.5-.1-2.3,1.6-2.6,1.6-3.9-.2-1.5-1.8-1.6-1.8-3.9,1-1.8,2.2-2.9,2.7-4.3,2.1-1-.5-4.2-.7-7.1-.6-6.6.4-9.1-1.2-6.6-4.1,1-1,2.5-1.6,3.4-1.3,1,.3,2.6-.5,4-2s3-2.3,4.1-2c1,.4,2.3-.4,3.4-2.1,1.7-2.6,1.7-2.8.1-4-1-.7-1.6-2-1.4-3,.4-2.5-3-3.1-3.9-.7-.4,1-1.8,3.5-3.2,5.6-1.9,3-2.6,3.5-3.3,2.3-.5-.8-.3-2.5.4-4,.6-1.5.8-2.9.5-3.2-1.4-1.5-3.7.8-4.7,4.8-.7,2.4-1.7,5.4-2.3,6.8q-1.1,2.5-1.5,0c-.2-1.4-1-3-1.9-3.7-1.1-.8-1.3-2-.8-4.2.6-2.6.4-3.1-1.3-3.1s-2.6,1.2-5.1,7.3c-1.1,2.8-3.1,3.7-3.1,1.3s.9-3.5,2-6.1c2.4-5.6,2.5-6.5.5-6.5s-1.5.5-1.5,1.1-.9,2.4-2.1,4c-1.7,2.4-2.4,2.7-3.5,1.8-.9-.7-1.1-1.7-.5-2.8.9-1.8.4-4.1-1-4.1s-1.5,1.6-2.3,3.5c-1.7,3.9-4.1,5.4-5.9,3.6s-.8-1.9.6-4.2c.9-1.7,1.7-3.5,1.7-4,0-1.3-2.8-1.1-3.2.2-.2.6-1.4.5-3.2-.5-3.5-1.8-3.9-1.6-6,2.9-.9,1.9-2.3,3.5-3.1,3.5-2,0-3.7-3.5-2.9-6.4.3-1.3.1-2.7-.4-3-1.2-.7-3.4,1.8-3.1,3.6.4,3.3-.2,4.8-2,4.8-2.8,0-3.5-1.7-1.7-4.2,1.9-2.7,2.1-6.8.3-6.8s-1.8,1.9-2.5,4.2c-.6,2.4-1.6,5-2.2,5.8-.9,1.3-1.1,1.3-2,0-.6-1-.4-2.2.5-3.7,1.9-2.8,1.9-3.3,0-3.3s-1.5-.9-1.5-2.5-.4-2.5-1-2.5-1,1.1-1,2.4-.5,2.8-1,3.1c-.6.3-1,1.7-1,2.9s-.7,2.9-1.5,3.6c-1.5,1.3-1.6,1.2-2.8-3-.2-.8,1.1-3.6,3-6.2,1.8-2.6,3.3-5.2,3.3-5.8,0-2.1-3-.9-4.4,1.8-.8,1.5-2.3,3.6-3.5,4.6-1.9,1.7-2.1,1.7-2.1.2s4-8.5,6.4-10.5c2.1-1.8,2-3.1-.2-3.1s-3.2,2.2-5.2,5.5c-3.7,5.7-5,6.7-5,3.6s5.2-9,7.6-10.4c1.6-.9,1.9-3.7.4-3.7s-9.1,8.4-10.7,12.2c-1.5,3.9-3.3,4.2-3.3.7s3.9-8.6,7.9-12.3c3.6-3.4,3.9-4.6,1.1-4.6s-2,.3-2,.7-1.6,2.5-3.6,4.5c-2.1,2.3-4.5,6.5-5.9,10.5-1.3,3.8-2.5,6.1-2.6,5.3-.3-3.7.4-6.8,2.7-10.9,1.4-2.5,2.2-5.2,1.9-6.2-.4-1.1.2-2.5,1.4-3.6,1.2-.9,2.8-3.8,3.6-6.4.9-2.6,2.5-5.5,3.5-6.4,1.1-1,2-2.2,2-2.7,0-1.3-2.7-.9-4,.7-2.2,2.7-3.2,1.7-2.5-2.5.8-4.7-.9-5.5-2.6-1.2-2,5-8.2,13.4-10.6,14.3-1.8.6-6.3,11.1-6.3,14.6s.6,2.3,1.5,2.3,1.5-.9,1.5-2.4c0-2.4,7.7-14.8,12.2-19.6q2.3-2.5,2.6-.2c.5,3.1-2,8.2-3.9,8.2s-6,4.9-9.3,13.2c-1.4,3.6-1.6,3.7-4.8,2.7-4.2-1.2-9.8-7.5-9.6-10.9.2-5.2-.2-9-1.2-9s-1.9,2.1-3,4.7c-2,4.6-2,4.9-.3,6.3,1,.8,2.7,3.4,3.7,5.8,2.1,4.6,6.7,7.5,10.5,6.5,1.3-.3,2.9.4,4.7,2.2,3.7,3.7,8.5,6.5,11.1,6.5s4,1.6,6.3,3.5,4.6,3.5,5.1,3.5,1.3.9,2,2.1c1.4,2.8.3,3.9-6.4,6-4.4,1.4-5.6,1.4-8.4.3-1.8-.8-4.7-1.4-6.5-1.4s-4.9-1.1-6.8-2.3c-1.9-1.3-6.8-3.6-10.9-5.2-4-1.5-8.8-4.1-10.6-5.6-1.8-1.6-3.8-2.9-4.4-2.9s-3.1-1.8-5.4-3.9c-2.4-2.2-6.6-5.1-9.4-6.5-5.4-2.7-15.1-9.7-19.3-13.7-1.4-1.4-4.9-4.4-7.8-6.8s-6-5.7-6.8-7.3-3-4.6-4.8-6.6c-1.9-2-4.6-6.1-6.1-9-2.4-4.5-2.7-6.1-2.3-11.5.6-7.6-.5-10.3-4.9-11.9-1.8-.7-4-2.2-4.8-3.4-3.3-5.1-7.5-13.6-7.5-15.2s-.9-3.6-2.1-5.7c-4.6-8.9-8.4-20.7-8.7-27-.1-1.7-.9-8.4-1.7-15-2.1-16.5-.9-51.3,2.1-61.9.8-2.7,1.4-6.5,1.4-8.4,0-3.8,6.4-30,8.5-34.7.7-1.7,2.5-6.6,4-11s3.1-8.5,3.5-9c.4-.6,1.1-2.1,1.5-3.5s2-4.1,3.6-6c1.5-1.9,5.9-9.3,9.6-16.3,3.8-7.1,8.4-14.7,10.1-17,1.8-2.3,5.9-7.6,9.2-11.9,10.1-13.1,30.8-28.8,38-28.8s10.8-3.5,17.5-10c7.1-6.8,11.9-9.5,19.6-11,3.2-.6,6.4-1.9,7.4-3s2.2-2,2.7-2,3.1-1.6,5.9-3.4c2.7-1.9,6.5-4.1,8.4-4.7,2.2-.8,3.5-2,3.5-3.1s-.4-1.8-.9-1.8c-1.5,0-11.9,5.9-21.1,12-1.4.9-5.2,2.2-8.5,3-7.8,1.8-11.7,4.1-19,11-6.2,5.9-14.1,10-19.2,10s-13.7,6.6-23,14.7c-9.2,8.1-10,8.9-17.6,18.9-10,13.1-11.2,15-16.2,25s-6.1,11.3-7.9,13.9c-3.1,4.3-5.4,9.3-13.2,29-1.3,3.3-3,8.7-3.8,12s-2.4,9.8-3.6,14.5-2.3,10.8-2.4,13.7c-.2,2.8-.7,5.6-1.1,6.2-.6,1.1-2.3,13.1-3.1,22.1-.7,8.1-.6,40.8.1,41.9.6,1.1,2.2,11.8,2.9,19.6.4,5.2,2.4,12.3,3.6,13,.6.3,1,1.5,1,2.6s.9,3.7,2,5.9,2,4.7,2,5.7,2.1,6,4.7,11.2c4.3,8.4,5.2,9.6,9,11.3q4.3,1.9,4.3,9.9c0,9.7,2.2,14.5,11.1,24.4,1.5,1.6,3,3.9,3.3,5,.4,1.1,3,3.8,5.8,6s7,5.8,9.2,7.9c5.2,4.9,13.9,10.9,19.1,13,2.2.9,5.3,3.1,7,4.8,1.6,1.7,4.8,4.2,7,5.6s5.6,3.7,7.5,5.2,6.8,3.9,10.9,5.4c4.1,1.4,8.2,3.2,9,3.9.9.8,3.9,1.9,6.6,2.6,2.8.7,7.3,1.9,10,2.6,3.2.9,18.2,2,42,3,20.4.8,38.6,1.7,40.5,2,1.9.2,13.6.7,26,1.1,22,.6,22.7.6,32.8-2,5.7-1.4,14.1-4.3,18.8-6.5,7.9-3.7,11.6-5.8,21-11.8,1.9-1.3,4-2.3,4.6-2.3s1.6-.7,2.3-1.6c.6-.9,2.3-1.8,3.8-1.9,2.6-.3,12.5-6.3,14.7-9,.7-.8,2-1.5,2.9-1.5,1.9,0,10.9-5.7,15.8-10.1,1.9-1.6,4.2-2.9,5.3-2.9s2.5-.8,3.2-1.9c.7-1,2.9-2.6,4.8-3.6s3.9-2.4,4.3-3.2c.5-.8,4.2-5.3,8.3-10.1,25-29.2,23.4-27,29.2-39.7,2.3-5,4.6-11.5,5.2-14.5s2.2-8.2,3.5-11.5c1.2-3.3,3.1-9.4,4-13.5,1-4.1,2.1-8,2.5-8.5,1.5-2,5.8-26.5,7.4-41.9,1.2-11.6,1-15.5-1.9-44.1-.6-6.6-3.7-24.3-5-28.5-.7-2.5-2.3-6.4-3.5-8.8-1.2-2.3-2.8-7.5-3.5-11.5-1-5.6-3-10.5-9.4-22.4-4.4-8.4-8.9-16.5-9.9-18-1-1.6-4-6-6.6-9.9s-7.9-10-11.8-13.5-9.6-8.9-12.7-11.9c-3.2-3-8.4-7.5-11.7-10-3.2-2.4-7.7-5.9-9.8-7.7-2.2-1.8-4.5-3.3-5.2-3.3s-2.7-1.4-4.5-3.2c-1.9-1.7-5.2-4-7.4-5-2.2-1.1-5.4-2.9-7.2-4.1s-6-3.9-9.5-6c-3.5-2.2-9.4-5.9-13.3-8.3-3.8-2.4-7.6-4.4-8.3-4.4s-2-.9-2.9-2c-1-1.1-2.5-2-3.5-2s-2.7-.9-3.8-2-2.8-2-3.7-2-2.7-.7-3.7-1.5c-1.1-.8-2.8-1.5-3.8-1.5-3,0-2,2.4,1.5,3.8,10.4,4.3,13.1,6.7,10.2,8.8-2.9,2.2-6.7,1.7-12.8-1.6-5.5-2.9-5.7-3-9.1-1.4-2.4,1.2-4.1,3.1-5.6,6.4-1.8,3.8-2.8,4.9-5.1,5.2-1.8.3-3.4-.1-4.1-1-.7-.7-2.2-1.2-3.5-.9-1.3.2-3-.1-3.8-.7-1.3-.9-1.4-1.7-.4-4.6,1.6-4.7,3.3-6.5,8.5-9.1,4.3-2,5.6-3.8,3.2-4-2.7-.3-4.5.4-11,4.3-7.2,4.3-10.7,4.8-18.8,3-9.9-2.3-12.1-3.1-13.8-5-2.1-2.6-10.5-3.4-21.2-2.1ZM134,390c0,.5-.2,1-.4,1-.3,0-.8-.5-1.1-1-.3-.6-.1-1,.4-1s1.1.4,1.1,1ZM186.8,410.9c.3.8-.1,1.2-.9.9-.7-.2-1.5-1-1.7-1.7-.3-.8.1-1.2.9-.9.7.2,1.5,1,1.7,1.7Z"/>
  <path class="st0" d="M271,3.1c0,.5.5.7,1,.4.6-.3,1-.8,1-1.1s-.4-.4-1-.4-1,.5-1,1.1Z"/>
  <path class="st0" d="M165.5,10c-1,1.7,1.2,3.7,2.5,2.4s.6-1.5-.4-2.3c-1-.9-1.6-.9-2.1-.1Z"/>
  <path class="st0" d="M196.7,13.7c-.3.5-1,2.8-1.7,5.3-1.1,3.9-1.3,4.2-2.1,2.4-1.3-3.6-3-3.9-5.6-1-2.9,3.4-3.1,6-.3,5.1,1.4-.5,2-.2,2,.9,0,2,1.9,2.1,2.6.2.3-.8,1.2-1.2,1.9-.9.9.3,2-.8,2.9-2.9.9-1.8,2.1-4,2.7-4.9.7-.9.9-2.4.6-3.3-.7-1.7-2.3-2.1-3-.9Z"/>
  <path class="st0" d="M182,17.5c0,.8-.9,2-2.1,2.7-2,1.3-5,6.9-6.2,12-1.3,5,1.9,3.2,3.5-2,1-3,2.4-5.1,3.9-5.9,3.6-1.8,5.5-8.3,2.4-8.3s-1.5.7-1.5,1.5Z"/>
  <path class="st0" d="M204.4,18.2c-.6,2-.7,2.1-1.9.4-1.3-1.7-1.4-1.7-2.4.3-1.5,2.8-1.4,5.1.4,5.1s1.5-.5,1.5-1.1.8-.8,1.9-.4c2.2.7,4.6-2.7,3.7-5.1-.8-2.1-2.4-1.7-3.2.8Z"/>
  <path class="st0" d="M165.4,27.7c-.3,1.6-.7,3.3-.9,3.9-.5,1.8.9,3.3,3.4,3.6,1.8.2,2.5-.4,3.5-3.2.7-1.9,1.7-4.3,2.1-5.3.5-1.2.3-1.7-.8-1.7s-1.9.9-2.2,2-1,2-1.5,2-.6-.9-.3-2c.4-1.4,0-2-1.1-2s-1.8,1.1-2.2,2.7Z"/>
  <path class="st0" d="M300.2,30.3c-2.2,2.3-2,3.7.3,3.7s3.5-4,3.5-5.5-1.8-.3-3.8,1.8Z"/>
  <path class="st0" d="M179.6,29.8c-.2.4-.7,2.4-1.1,4.5-.6,2.9-.4,3.7.8,3.7s2.7-3.9,2.7-7.6-1.6-1.9-2.4-.6Z"/>
  <path class="st0" d="M192.7,31.7c-2.5,4.8-3,7.3-1.5,7.3s6-7.8,5.2-9.1c-1-1.6-2.3-.9-3.7,1.8Z"/>
  <path class="st0" d="M156.8,31.7c-1.9,2.3-4.8,10.2-4.8,13.2s2.1,1.7,5.1-5.9c2.8-7.3,2.7-10.8-.3-7.3Z"/>
  <path class="st0" d="M185.5,34c-.7,4.1.1,6.8,1.6,5.3s1.1-2.7,1.5-5.1c.5-3.4.4-4.2-.9-4.2s-1.8,1.4-2.2,4Z"/>
  <path class="st0" d="M258.7,30.6c-.9,1,.2,2.4,1.9,2.4s1.4-.7,1.4-1.5c0-1.5-2.1-2.1-3.3-.9Z"/>
  <path class="st0" d="M281.6,31.6c-.4,1-.2,2.2.3,2.7,1.4,1.4,4.3,0,3.9-2-.4-2.4-3.4-2.8-4.2-.7Z"/>
  <path class="st0" d="M269.7,31.6c-1.4,1.4-.7,3.5,1.1,3.2.9-.2,1.7-1,1.7-1.7,0-1.6-1.8-2.5-2.8-1.5Z"/>
  <path class="st0" d="M197.1,36.9c-1.1,1.1-2.9,3.8-4,6-1.8,3.3-1.8,4.1-.6,5.1,1.9,1.6,3.5.4,3.5-2.5s1.2-3.8,2.6-5.5c1.9-2.2,2.4-3.4,1.6-4.2s-1.6-.4-3.1,1.1Z"/>
  <path class="st0" d="M161.2,37.3c-.6.6-2,3.6-3.2,6.6-1.5,3.9-1.8,5.7-1,6.5,1.3,1.3,3-.8,3-3.8s1.1-3.4,2.6-5.3c1.4-1.8,2.2-3.8,1.9-4.3-.8-1.4-2-1.3-3.3.3Z"/>
  <path class="st0" d="M146.7,40.7c-1.9,3.7-3.1,18.9-1.7,19.8,1.7,1,2.2.1,2.6-4.7.6-7.8,1.2-12.3,1.9-15.1.5-1.7.3-2.7-.4-2.7s-1.7,1.2-2.4,2.7Z"/>
  <path class="st0" d="M292.9,40.1c-.7,1.4-.8,2.4-.1,3.1,1.7,1.7,4.2.1,4.2-2.7s-2.5-3.4-4.1-.4Z"/>
  <path class="st0" d="M311,40.1c0,1.4.5,1.9,1.7,1.7,2.6-.5,2.9-3.8.4-3.8s-2.1.6-2.1,2.1Z"/>
  <path class="st0" d="M166.3,41.7c-2.7,4.1-5.3,10.1-5.3,12.3s2.8,2.8,3.4.7c.2-.6.9-3.1,1.5-5.5.7-2.4,2.1-5.1,3.2-6,1-.9,1.9-2.2,1.9-2.9,0-2.3-2.8-1.4-4.7,1.4Z"/>
  <path class="st0" d="M281,41.1c0,2.5,3.3,2.2,3.8-.4.2-1.2-.3-1.7-1.7-1.7s-2.1.6-2.1,2.1Z"/>
  <path class="st0" d="M304.4,40.1c-.3.6-.2,1.5.4,2.1,1.3,1.3,3.2.2,3.2-1.8s-2.6-1.9-3.6-.3Z"/>
  <path class="st0" d="M173.6,45c-1.4,2.2-2.6,4.4-2.6,4.9s-.6,1.4-1.4,2c-1.6,1.3-3.1,6.9-2.2,7.8s3.6-1.8,3.6-3.6,1.8-4.2,4-7.4c2.2-3.1,4-6.2,4-6.7,0-2.3-2.9-.7-5.4,3Z"/>
  <path class="st0" d="M139.6,44.2c-1.9,2.6-2,6.1-.5,8.6.9,1.4.8,2.6-.5,5-1.5,2.9-1.5,3.3-.1,3.8,2.5,1,3-.3,3.2-7.4.1-3.7.5-7.9.9-9.5.8-3.3-.9-3.6-3-.5Z"/>
  <path class="st0" d="M177.1,50.5c-2.6,3.9-4.1,7.1-3.7,8.1.8,2,3,1.3,3.5-1.2s1.8-4,3.7-6.7c3.7-5.1,4.2-6.7,2.1-6.7s-3.3,2.9-5.6,6.5Z"/>
  <path class="st0" d="M132.7,46.7c-1.8,6.1-1.8,8.3-.3,8.3s3.8-3.5,3.4-6.7c-.4-3.1-2.4-4.2-3.1-1.6Z"/>
  <path class="st0" d="M187.3,48.2c-2,2.7-4.5,9.7-3.9,10.7,1.3,2.1,2.3,1.1,4.5-4.6,2-5.3,1.7-9.1-.6-6.1Z"/>
  <path class="st0" d="M198.2,53.7c.4,2.1,3.3,2.5,3.3.3s-.8-1.6-1.8-1.8c-1.4-.3-1.8.1-1.5,1.5Z"/>
  <path class="st0" d="M151.4,55.2c-.5.7-1.1,3.5-1.5,6.3-.4,2.7-1,5.8-1.5,6.9-.5,1.4-.3,1.7,1.2,1.4,1.9-.3,3.1-3.7,3.9-11,.4-3.8-.8-5.8-2.1-3.6Z"/>
  <path class="st0" d="M125.7,55.7c-.3.5-.8,3-1.2,5.7-.5,3.6-.4,4.7.6,4.4,1.5-.5,4.1-7.7,3.5-9.5-.6-1.4-2.2-1.7-2.9-.6Z"/>
  <path class="st0" d="M190.2,56.2c-1.6,1.6-1.5,3.8.2,3.8s1.9-.6,2.5-1.4c1.6-1.9-1-4.1-2.7-2.4Z"/>
  <path class="st0" d="M203,57.5c0,.8.7,1.5,1.5,1.5s1.5-.7,1.5-1.5-.7-1.5-1.5-1.5-1.5.7-1.5,1.5Z"/>
  <path class="st0" d="M157,59.4c0,2.9,2.6,5.4,4.1,3.9s.6-1.9-.6-3.7c-2.1-3.2-3.5-3.3-3.5-.2Z"/>
  <path class="st0" d="M195.2,59.2c-1.7,1.7-1.5,4.8.3,4.8s3.9-3.6,3-5c-.8-1.3-1.8-1.3-3.3.2Z"/>
  <path class="st0" d="M118.5,62.3c-1.6,2.5-1.4,4.7.6,4.7s1.4-1.2,2-2.7c1.4-3.8-.5-5.2-2.6-2Z"/>
  <path class="st0" d="M128.5,66c-2,2.8-4.1,4.7-4.7,4.4-.5-.3-1.8.2-2.8,1.1-2.1,1.9-2,2-3.6-3.3-.7-2.5-2.6,0-2,2.8.3,1.8-.2,4.3-1.4,6.9-2.4,4.8-2.5,7.4-.5,9.1,2.1,1.7,3,.5,3-3.8s2-5.4,3-2.3c.3,1.2,1.3,2.1,2.1,2.1,2,0,2.9-2.7,1.5-4.4-1.8-2.2-.3-4.7,2.5-4s2.4.2,2.4-1.6,1.4-3.8,3-5.7c3.1-3.5,3.6-4.8,2.1-5.7-.5-.4-2.6,1.6-4.6,4.4Z"/>
  <path class="st0" d="M206.4,62.5c-.4.9-.2,2.1.4,2.7,1.5,1.5,4.4.1,4-1.9-.4-2.3-3.6-2.9-4.4-.8Z"/>
  <path class="st0" d="M181,65.6c0,2.1-.3,2.4-1.3,1.5-1.8-1.4-2.7-.4-2.7,3s1.6,4.6,3,1.9c.6-1.1,1.7-2,2.4-2,1.5,0,2.7-3.5,1.9-5.6-.9-2.4-3.3-1.6-3.3,1.2Z"/>
  <path class="st0" d="M190,64.4c0,.9.7,1.6,1.6,1.6s1.4-.5,1.2-1.2c-.6-1.8-2.8-2.1-2.8-.4Z"/>
  <path class="st0" d="M137,66c-1.2,2.3-.6,4,1.6,4s1.4-1.1,1.4-3c0-3.5-1.4-3.9-3-1Z"/>
  <path class="st0" d="M142,68.5c0,3.6-1.9,5.5-6.8,7-1.8.5-2.5.2-2.9-1.4-.7-2.6-1.8-1.9-3.9,2.5-1.7,3.6-1.3,5.4.8,3.6,1.9-1.5,12.9-4.2,17.3-4.2s3.8.5,4.2,2c.4,1.6,1.4,2,5.3,2s5.2.5,6,1.5c.7.9,2.3,1.5,3.4,1.3,2.7-.4,3.5-3.8.9-3.8s-2.3-.4-2.8-.9c-.6-.5-2.3-1.1-4-1.3q-3-.3-2.6-6.2c.2-4.6,0-5.7-1-5.4-.8.3-1.5,2.1-1.7,4.2q-.3,3.7-5,3.4t-4.5-4.1c.2-2.7-.2-3.7-1.2-3.7s-1.5,1.1-1.5,3.5Z"/>
  <path class="st0" d="M161,66.9c-1.3,2.6-1.3,4.8.1,5.7,1.5.9,2.9-1.4,2.9-4.9s-1.5-3.6-3-.8Z"/>
  <path class="st0" d="M167.4,67.4c-.3.8-.4,2.5-.2,3.8.4,3.1,6.4,3.6,7.4.6.8-2.5-.2-3.4-2-1.9-1.3,1.1-1.6.8-2.2-1.3-.7-2.8-2.2-3.4-3-1.2Z"/>
  <path class="st0" d="M105.7,68.6c-1.2,1.3-.7,3.4.8,3.4s1.5,1,1.5,2.7c0,3.6,1.6,6.1,2.9,4.8s.7-3,.3-6c-.6-4-1.1-5.1-2.8-5.3-1.1-.2-2.3,0-2.7.4Z"/>
  <path class="st0" d="M88.4,78.1c-.4.7-.8,6.3-1,12.5-.3,9.5-.1,11.4,1.1,11.4s1.5-1.5,1.5-6.4.3-9.1.6-12.5c.5-4.1.3-6.1-.4-6.1s-1.4.5-1.8,1.1Z"/>
  <path class="st0" d="M100.7,81c-1,2.2-2.2,6.1-2.5,8.7-.4,2.6-1.3,4.8-2.1,5.1-1.2.4-1.3-.9-.8-7.7.4-5.1.3-8.1-.4-8.1-1.8,0-2.8,5-2.3,11.7.3,3.8.6,8.5.6,10.5s.5,3.8,1.4,3.8c1.4,0,1.6-.5,1.8-5,.1-1.8.7-2.6,2.4-2.8,1.9-.3,2.2.1,2.2,3.2s.4,3.6,1.6,3.6,1.5.7.9,4.6c-.7,5.1-8.4,21.1-11.5,23.9-1.9,1.7-2,1.7-2.7-.1-.3-1-.2-1.9.3-2.1,3.2-1.1,3.9-2.2,2.7-4.3-1.7-2.7-1.6-5.1.3-7.8,1.5-2.2,1.2-4.2-.7-4.2s-2.6,3.8-4.5,12.7c-1.2,5.9-1.3,7.8-.3,8.9.8.9,1.3,5.5,1.4,11.9.2,6.1.7,11.1,1.4,11.9.6.7.9,2.1.5,3s-.1,1.6.6,1.6c1,0,1,.3,0,1.5-1.7,2-4.3,0-3.5-2.6.4-1.1.2-1.9-.3-1.9s-2.3,3-4,6.8c-2.5,5.3-3,7.4-2.4,9.7,1.2,4.3,2.6,3.3,3-2,.2-2.5.7-4.5,1.3-4.5s.9.6.9,1.2.2,4.7.4,8.8c.4,8.4,0,9.9-1.9,7.3-1.3-1.7-1.4-1.6-2.4,1-1.1,2.8-3.1,2.9-3.1.2s-.6-1.2-1.3-.9c-.7.2-2.2-.4-3.2-1.6-1.5-1.7-1.7-3.1-1.2-9,.3-3.8.2-7.2-.3-7.5-1.4-.9-2,1-2.7,8-.3,3.6-1,6.5-1.4,6.5s-.9-.8-.9-1.8-.5-2.3-1-2.8c-.8-.8-.7-2.6,0-5.9,1.2-5.2.9-6.1-1.5-5.2-1,.4-1.5,1.9-1.5,4.4,0,5.3-1,8.3-2.6,8.3s-1.4,1.3-1.4,4.5c0,4.7-.8,5.6-6.3,6.9-2,.5-2.9.2-3.4-1-.8-2,1.1-3.2,4.3-2.6,2.7.5,2.9,0,1.4-2.9-.6-1-1.9-1.9-3-1.9s-1.9-.6-1.7-2.3c.1-1.4-.3-2.2-1.3-2.2s-1.4,1.1-1.2,5.2c.2,2.9-.1,5.4-.7,5.8-.6.3-1.1,1.5-1.1,2.6,0,2.8-2.8,3.5-4.6,1.3-1.4-1.7-1.5-1.5-1,2.9.5,4.1.3,4.9-1.3,5.5-2.3.8-15.8,16.3-18.4,21-1,1.8-1.6,4-1.3,4.8,1,2.6,3.1,1.4,4.9-2.9,2.3-5.4,15.8-19.7,18.7-19.7s2.6-1.2,4-4.4c2.3-5.5,6.4-7,14.2-5.6,2.8.6,5.4.7,5.9.4s3.6,0,7,.7c4.9,1,6.9.9,9.6,0,3.1-1.2,3.7-1.1,5.7.8,1.2,1.2,2.7,2.1,3.2,2.1,2.1,0,5.2,4.6,6.3,9.4,1.7,6.8,3.4,9.8,7.4,12.8,4.1,3.2,7.4,10.6,5.1,11.5-.9.3-2.6.1-4-.6-1.4-.6-3.8-1.1-5.4-1.1-3.9,0-6-.9-6-2.7s-1.2-3.5-2.7-6.1c-1.5-2.5-3-6.4-3.3-8.6q-.5-4.1-9.9-5.1c-6.5-.7-9.6-1.4-9.9-2.4-.4-1.1,1-1.3,7.7-.7,6.8.6,8.1.5,8.1-.7,0-3.2-20-3.7-23.5-.6-1.1,1-3.9,2.5-6.3,3.5-3,1.1-5.1,2.9-6.9,5.7q-2.6,4.1-.4,5.5c1.1.8,2.1,2.5,2.1,3.8s.7,2.7,1.6,3.2c1.3.7,1.2,1.1-1,2.5-1.4,1-3,3.4-3.7,5.7-.7,2.2-1.8,4-2.6,4-1.7,0-1.7-.9.1-2.9.7-.9,1.7-4.2,2-7.3.7-5.6.7-5.7-2.4-7.3-1.8-.9-3.8-1.4-4.6-1.1-2.3.9-1.6,3.6,1.1,4.6,3.4,1.3,3.1,3-1.2,6.5-2.8,2.2-5.2,3.1-10.1,3.7-3.5.4-7,1.2-7.7,1.8-1.8,1.5-2.6,7.8-1.3,9.9.8,1.3.6,2.5-.6,4.9-2.4,4.6-2.3,4.9,4.5,19.9,1,2.4,1.9,5.1,1.9,6.1s2.8,4.5,6.1,7.7q6.2,5.7,5.3,11.4c-1,7.2-.9,13,.4,14.3s2.3.3,4.9-1c2.1-1.1,5.6-2.3,7.6-2.7,3.6-.7,3.7-.6,3.7,2.3s-1.7,5-3.6,2.3c-1.8-2.4-3-2.7-3.7-.7-.7,1.7,5.3,10.6,7.1,10.6s1.2-.9,1.2-1.9c0-3.5,1.2-5.1,3.6-5.1s2.4.6,2.4,1.2c0,2.8-3.6,9.9-5.3,10.4-1.1.4-1.6,1.2-1.3,2.1.3.8.6,2.5.6,3.8s.8,3.2,1.9,4.2c1,1,2.2,3.3,2.6,5.1.4,1.9,1.8,4.3,3.1,5.5,1.6,1.4,2.6,3.6,3,6.9.6,4.5.9,4.9,2.9,4.4,1.9-.5,2.4,0,3.4,3.4.9,3,2,4.3,4.7,5.6,2.8,1.4,3.8,1.4,4.4.5,2.3-3.9,8.1,2.4,8.3,9,.2,3.4.6,4.5,2,4.7,1.2.3,2-.4,2.4-1.7.7-2.8,2.1-2.7,3.2.2.5,1.3,1.6,2.9,2.6,3.7,1.4,1.1,1.9,1,3.7-.8,2.1-2,2.1-2.2.5-4-2.3-2.5-2.1-4.1.8-8.4s3-4.8,1-4.8-2.4,1.3-3.6,3c-1.2,1.6-2.6,2.7-3.1,2.4-1.2-.8,2.9-8.2,5-8.8,1.5-.5,1.7-1.5,1.4-7.8-.3-5,0-8.1,1-10.2.9-1.7,2.3-4.9,3.3-7.1s2.4-5.3,3.1-6.8c.8-1.6,1.4-3.4,1.4-4s1-3.1,2.2-5.4c2-3.7,2.1-4.6,1-6.4-1.1-1.7-1.1-2.5.2-4.4.9-1.4,1.6-3.2,1.6-4,0-3.2-2.5-.8-5.2,4.8-1.5,3.1-3.2,5.7-3.8,5.7-1.6,0-1.2-6.3.6-8.9,1.3-1.8,1.4-2.8.5-4.7-1-2.4-3.1-2.5-3.1-.2s-.9,2.3-2.1,3.9c-1.2,1.8-2.3,5.2-2.6,8.7-.6,6.1-3.2,10.2-6.5,10.2s-2.3-1.5.2-5c1.1-1.5,2.4-5.7,2.9-9.3.9-6.7,2-9.4,5.3-13.6,1.4-1.8,1.6-2.7.7-3.5-.8-.8-1.4-.6-2.3.7-3.2,5.2-3.5,5.4-3.6,1.9,0-2.1-.5-3.2-1.4-3.2-1.9,0-3.9,10.9-2.3,12.9.6.7,1,2.8.9,4.5-.5,4.6-8.8,21.6-10.7,21.6-2.7,0-.9-9.2,2.4-11.8.9-.7,1.6-1.8,1.7-2.5,0-.7.8-2.6,1.7-4.4,2.1-3.9,2.1-4.3.3-4.3s-3-2-1.7-3.3,1.4-2.7-.2-2.7-2.7,2.4-4.3,5.2c-2.7,4.9-2.9,5.1-3.2,2.6-.2-1.5,1-5.3,2.7-8.7,1.8-3.7,2.6-6.3,2-6.7-1.4-.9-4.9,2.5-4.9,4.8s-1.6,5.5-5.1,9.6c-3.2,3.6-3.6,5.2-1.5,5.2s2.7,2.5,1.9,4.7c-.5,1.2-.3,1.4.7.8s1.2-.1.7,2.5c-.4,1.8-.7,3.6-.7,4.1s-2,1.7-4.4,2.8c-2.6,1.1-4.7,2.8-5.1,4.1-.4,1.4-1,1.9-1.7,1.2-1.2-1.2,2.8-7.9,5.3-8.7,2.4-.8,4.7-4.7,3-5.3-.6-.2-1.1-1.5-1.1-2.9,0-2.5-.1-2.5-1.8-.9-1.8,1.5-1.9,1.5-1.7-1.6.2-4.6,1.9-7.4,5.4-8.6,2.4-.8,3-1.7,3.5-5.5.4-2.5,1.6-5.3,2.6-6.2,2.1-1.9,2.7-4.5,1-4.5s-1,.4-1,1-.9,1-2,1c-3.3,0-2.3-3,1.6-4.6,2.9-1.2,3.4-1.7,2.4-2.9s-1-1.8,0-3c.7-.8,1-2.1.7-2.8-.8-2.1,1-4.2,3.5-4.2s2.4-.6,3-5.5c.3-3,.8-6.2,1-7,.1-.8-.1-1.7-.7-2-1-.5-2.8,4.3-4,10.2-.3,1.6-1,2.8-1.6,2.8s-1.9,1-3,2.2c-2.2,2.7-2.6,1.1-.4-1.8,1.6-2.1,2-4.4.6-4.4s-12.9,20.5-14.2,25.8c-.8,3.2-2.2,6.1-3.6,7.1-1.2,1-2.5,3-2.9,4.5-.3,1.4-1.1,2.9-1.7,3.3-1.9,1.1.1-8.2,2.7-12.8,5.1-8.9,5.7-10.9,5-15.5-.5-3.3-1-4.4-2-4-1.2.5-1.2.2-.3-1.6.9-1.6,1.3-1.8,1.9-.7.7,1,1.1,1,2.5-.1,2.7-2.2,6.8-11.2,7.1-15.5.2-3.1,1.1-4.7,3.8-7.2,4.2-3.9,8.5-4.3,13.4-1.3,3.7,2.3,3.9,3.3,1.2,6.7-2.4,3-2.6,6.3-.5,6.3s2-1.7,2.7-4.5c.7-2.4,1.8-4.7,2.5-4.9,1.6-.7,4.3.3,4.3,1.5s1.5.9,3.4.9,3.7.4,4,.9,2.1,1.2,3.9,1.5,4.9,1.7,6.7,3.1c5.9,4.3,10,3.6,21.4-4s10.3-6.6,10.9-6.6c2.3-.2,5.2.2,7.2,1,1.1.5,4,1.6,6.5,2.6s6.1,2.5,8,3.5c5.3,2.7,18.4,6,23.9,6s6.8.7,9.2,1.6c3,1,8.4,1.6,16.9,1.7,14.8.2,22.9-.8,28.9-3.4,2.3-1.1,5-1.9,5.8-1.7s2.2,2.7,3.2,5.5c2,5.8,4.7,8.8,10.1,11,1.9.8,5.2,3.3,7.3,5.6,4.6,5.1,4.9,8.7.9,10.8-1.6.8-4.4,2.2-6.3,3.1s-7.3,2.9-12.1,4.4c-7.5,2.2-9.3,3.3-12.8,7-2.2,2.4-4,4.7-4,5.2s-1.9,1.5-4.2,2.2c-7.3,2.3-11.7,4.9-13.2,7.8-.8,1.6-2.2,3.4-3,4.1-1.8,1.5-2.1,5.6-.6,6.6,1.8,1.1,4.8-.5,5.9-3.3,1.3-3.4,5.6-8.2,7.4-8.2s5.9-1.9,10.7-4.5c1.4-.7,3.7-3.3,5.1-5.7,2.1-3.5,3.6-4.8,9-7,3.5-1.4,7.3-2.7,8.3-2.7,2.3-.1,14.2-6.6,17.4-9.4,3.3-3,2.7-6-2-11.5-2.4-2.7-5.1-5.9-6-7.1-1-1.1-2.6-2.1-3.6-2.1s-3.5-1.6-5.5-3.5c-3.9-3.8-5.6-8.7-3.7-11,1.5-1.8,10.3-4.3,16-4.6,4-.2,5,.3,8.7,3.8q4.3,4,2.7,11.4c-1.4,6.9-1.4,7.6.2,10.4.9,1.6,3,4.1,4.6,5.5,3.4,2.9,5.3,9.3,3.6,12-1.6,2.6-14,10.4-16.2,10.2-1.9-.1-8,4-12,8.1-1.5,1.5-2.8,1.8-6.1,1.3-3.6-.4-4.7-.1-6.9,1.9-1.4,1.3-2.6,3.2-2.6,4.2s-2.3,4.1-5,6.8q-5.1,5-13.5,5c-4.6,0-8.7.4-9.1.8-1.7,1.6,2.3,2.7,10.5,2.7s8.6.2,10.5,2.3c2,2.2,3.3,2.4,13.8,3,12.2.6,19-.5,21.2-3.4.6-.8,2.8-2.8,4.8-4.3,3-2.2,3.7-3.3,3.2-5.1-.3-1.3.1-2.8,1-3.8,1.9-1.9,2.1-4.7.4-4.7s-2.8.9-4.5,2c-2.7,1.6-3.3,2.6-3.3,5.3,0,6.5-7.1,9.6-21.2,9.4-12.9-.3-13.5-1-6.7-8.2,6.5-6.9,9.4-8.5,15.4-8.5s11.8-3.7,13.9-7.9c.8-1.4,4.9-5.3,9.2-8.6s11.5-10.2,16.1-15.4c7.2-8.2,8.3-10,8.3-13.1,0-5-3.4-9.8-9.5-13.1-2.7-1.5-5.1-3.2-5.3-3.7-.1-.5,1.2-2.4,2.9-4.2,2.6-2.6,3-3.4,1.8-4.1-2.6-1.7-5.4-.6-5.2,1.9.3,2.1,0,2.2-3.1,1.7-2-.4-3.6-.2-4,.4-1.4,2.2-4.7,1.1-6.7-2.4-1.1-1.9-2.9-3.7-4-4-2.5-.8-6-7.7-6.3-12.4-.4-4.6-4-11.7-6.7-13.2-1.6-.8-2.8-.8-4.8.1-2.5,1.1-2.5,1.2-.6,2.6,1,.8,2.1,1.4,2.5,1.4,1.8,0,6.8,15.5,5.4,16.9s-3,.6-6.1.7c-6,.4-12.2,2.5-23.3,7.9-9.4,4.6-15.3,5.7-31.3,5.7-17.3.1-30.2-1.4-38.2-4.2-3.3-1.2-7-2.4-8.2-2.7s-2.8-1.1-3.4-1.9c-.6-.7-3.8-1.9-7.1-2.6-4.6-1-6.2-1.8-6.8-3.4-1.1-2.9-9.4-3.9-12.6-1.5s-4.5,3.4-7.5,5.6c-3,2.3-7.3,4.7-9.6,5.5-4.5,1.4-7.6.9-16.3-2.4-14.4-5.5-23-8.5-26.1-9-3.4-.6-3.9-.3-7.3,3.8-2,2.4-3.6,4.9-3.6,5.5s-.4,1.1-.8,1.1-1.6,1.6-2.5,3.5c-1,1.9-2.4,5-3.3,6.9-1.8,3.9-5.4,5.9-9,5-1.9-.5-2.4-.2-2.4,1.3s.5,2.4,1.2,3.1.8,1.5-.2,2.6c-1.6,2-3,1.2-2.3-1.4.4-1.6,0-2-2.1-2s-2.6.4-2.6,3.7c0,5.2,1.2,6.8,3.8,5.4,1.7-.9,2.1-.7,3,1.7,1.5,4.3-.7,9.5-5.6,13.6-4.3,3.5-9.8,5.4-12.7,4.2-1.6-.6-1.4-5.9.6-12,.7-2.2.5-3.3-.6-4.6-1.8-2-1-3,2.2-3s2.3-.5,2.3-3,.6-4.4,1.4-6.2,2-4.8,2.7-6.7,4.4-6.6,8.2-10.5c3.9-3.9,8.7-9.4,10.8-12.3,2.3-3.1,4.8-5.3,6.1-5.5,1.4-.2,2.4-1.1,2.6-2.4.2-1.2,1.4-3.2,2.8-4.5q2.4-2.3,9.7-.6c3.9,1,10.1,2.4,13.6,3.2s6.9,1.9,7.4,2.4,3.4,1.1,6.2,1.1c6.5,0,9-2.4,10-9.5.4-2.8,1.4-5.8,2.3-6.8,1.4-1.6,1.4-1.9-.6-3.9-1.3-1.4-2.5-1.9-3-1.3-.9,1-3.8,10.4-4.4,14-.2,1.4-1.2,2.1-3.6,2.3-3,.3-3.2.1-3.1-2.5.1-1.5-.8-5.3-2-8.3s-2-6.8-1.9-8.5c.4-3.6-2.6-4.9-3.5-1.4-.7,2.7-2.7,1.5-2.7-1.6s-.7-4.3-1.6-6.5c-3.1-7.6-.3-17.8,7.3-26.7,13-15.3,22.9-30.3,26.7-40.5,4.7-12.5,4.9-12.8,7.3-12.8s3-2.1.5-4.3c-2-1.8-4.2-2.2-4.2-.9s-1.5,2.5-3.2,4.4c-1.8,2-5.7,6.3-8.6,9.7-2.9,3.3-5.9,6.1-6.6,6.1s-1.8.6-2.5,1.2c-.6.7-2.4,1.3-3.7,1.3-2.4,0-2.6.4-2.8,4.8-.1,3.9-.8,5.3-3.4,7.9-4.6,4.6-5.9,2.8-3.1-4.5,2.5-6.5,1.7-8.7-3.1-8.7s-4.7,2.8-5.2,8.9c-.3,4-2.9,6.1-5.5,4.5-1.2-.8-1.7-2.8-1.9-8.5-.2-7,0-8,3.7-15,7.7-14.7,9.8-19.8,10.9-26.4.6-4,2.1-8.2,3.6-10.5,2.9-4.4,2.4-7.2-.7-4.4-1.8,1.6-1.9,1.6-1.9-.4s-.7-2.5-1.7-3c-.9-.6-1.4-1.6-1-2.5.9-2.4-1-3.1-2.2-.9-.7,1.3-.5,3.6.5,7.7,1.9,7.2,1,10.9-1.3,5-2.6-6.8-2.7-10.8-.4-15.1,2.4-4.4,2.7-6.4.9-6.4s-2.1,1.8-3.1,4ZM105.1,153.7c-.9,1.5-1,1.2-1.1-1.8,0-2,.3-3.9.8-4.3,1.1-1.2,1.4,4.2.3,6.1ZM117.6,163.9c-1.4,2-2.6,4.7-2.6,5.9s-.7,2.5-1.5,2.9c-.7.5-3.4,3.5-6,6.7q-4.5,5.8-4.5,2.7c0-3.5-1.5-4.2-2.5-1.1-.3,1.1-1.1,2-1.6,2-1.2,0-1.2-3.2.1-6.5.9-2.2,1.5-2.6,3.5-2.1,2.6.7,2.8.5,3.9-4.6.6-2.6.5-2.7-2.4-2.2-2.9.6-3,.5-3-3s1.8-4.9,2.7-1.6c.3,1.2,1.4,2,2.8,2,2.5,0,9.9-5,11.7-8q1.3-2,1.6.5c.2,1.7-.6,4.1-2.2,6.4ZM94.7,169.7c-.3,1-.5.2-.5-1.7s.2-2.7.5-1.8c.2,1,.2,2.6,0,3.5ZM93.5,172.9c-1,1.7-2.3,10.4-1.8,11.8.3.8,1.3,1.1,2.4.8,1.5-.5,1.9-.1,1.9,2s-.2,2.6-3.2,2c-4.6-1-4.8-1.3-3.8-3.9s.7-2.6.4-2.8c-.7-.7-1.2-9.7-.6-10.3.9-.9,5.3-.5,4.7.4ZM97.6,175.2c-.6,3.1-2.2,5.6-2.9,4.7-.2-.2-.2-2.1.1-4.2.3-2.4.9-3.7,1.9-3.7s1.4.7.9,3.2ZM65.4,186.4c1.2,2.8,2.1,3.5,4.7,3.8,3.6.3,5.4,2.8,2,2.8s-2.3-.5-2.6-1c-.3-.6-2.2-1-4.1-1-3.2,0-3.4-.2-3.4-3.3s.6-4.7,1.7-4.7.9,1.5,1.7,3.4ZM100.8,192.6q.3,2.9-1.7.4c-2-2.5-1.9-4.4.2-3.7.7.2,1.3,1.7,1.5,3.3ZM85.5,214.3c3.2,6.8,3.2,8.7,0,8.7s-2.5-.3-1.9-2.5c.7-2.7-.4-3.2-2.5-1.3-1.1,1.1-1.3,1-.8-.5,1.1-3-2.6-1.6-4.1,1.6-2.1,4.3-2.8,10.1-1.2,9.5.8-.2,1.8-1.8,2.4-3.5,1.4-4,2.6-5.2,2.6-2.6s.7,2.3,1.5,2.7c.8.3,1.5,1.1,1.5,1.9,0,1.7-5.8,7.7-7.5,7.7-4.1,0-5-9.7-1.6-16.3,3.2-6.2,4-6.8,7.9-6.2,2,.3,3.6.7,3.7.8ZM69,215.2c0,1.9-1.8,4.3-2.5,3.6s.4-4.8,1.6-4.8.9.6.9,1.2ZM63,218c0,.5-.5,1-1.1,1s-.7-.5-.4-1c.3-.6.8-1,1.1-1s.4.4.4,1ZM71.3,219c-.5,1.9-2.3,3.9-2.3,2.5s2-4.5,2.4-4.5.2.9-.1,2ZM67.9,230.1c-.6,3-1.6,6.2-2.1,7.1-1.3,2.6-3.8,2.2-3.8-.5s5.8-13.2,6.6-12.4-.1,2.8-.7,5.8ZM62.5,227.1c0,.8-1,1.5-2.2,1.7-2.5.4-3.3-2.2-1-3.1,1.8-.8,3.2-.2,3.2,1.4ZM60,234c0,.5-.4,1-1,1s-1-.5-1-1,.5-1,1-1,1,.4,1,1ZM67,245.5c0,.9-1.8,3.5-4,5.8-4,4.2-5.2,3.7-3.1-1.5.5-1.3,1.2-3.1,1.5-4.1.7-2.2,5.6-2.4,5.6-.2ZM57,249.5c0,.8-.7,1.5-1.5,1.5-1.6,0-2-1.2-.8-2.3,1.1-1.2,2.3-.8,2.3.8ZM47,252.5c0,1.2-2.8,3.5-4.4,3.5s-.7-3.5.1-4.3c1.2-1.3,4.3-.7,4.3.8ZM33.7,261.4c-.3,2.8-.8,5.9-1.2,6.8-.5,1.3-.2,1.8.9,1.8,1.8,0,2.1,2.2.5,5.1-1.4,2.7-2.9,1.4-2.9-2.6s-.4-3.7-1-4c-1.5-.9-1.2-4.3.6-9.2,2.2-5.6,3.8-4.5,3.1,2.1ZM41,262.5c-.7.8-1.6,1.5-2.1,1.5-1.3,0-1.1-2.4.3-3.8s3.5.3,1.8,2.3ZM47,259.8c0,1.5-2.8,4.7-3.5,4-1.1-1.1.5-4.8,2.1-4.8s1.4.4,1.4.8ZM51,259.7c0,.5-.9,1.9-2,3.3-1.8,2.3-2,2.4-2,.4s1.7-4.4,3.2-4.4.8.3.8.7ZM319.5,274.3c3.9,3.7,4.5,4.9,4.5,8.3s-.7,4.6-3.8,7.7c-4.3,4.2-4.2,4.3-9.5-4-3.1-4.9-3.2-5.2-1.3-9.5.8-1.8,1.7-4.1,2-5.1.9-2.8,3.3-2,8.1,2.6ZM43.3,272.2c1.5,1.2,1.5,1.7.4,5.1-.8,2.1-1.9,4.3-2.5,4.9-2.1,2.1-2.6-.1-.9-3.7,1.4-2.9,1.4-3.5.2-3.5-1.7,0-2.8-1.7-2-3,.8-1.4,2.8-1.3,4.8.2ZM67,279.4c0,1.1-1.9,1.5-2.5.6-.3-.5.1-1,.9-1s1.6.2,1.6.4ZM68.2,292.2c-.9.9-1.2.7-1.2-1.2s.3-2.1,1.2-1.2.9,1.5,0,2.4ZM77.4,295.5c-.6,1.6-2.4,2.1-2.4.7s1.1-2.2,2.1-2.2.6.7.3,1.5ZM79.8,301.2c-.6,1.8-2.6,4.7-4.4,6.4-1.9,1.8-3.4,3.9-3.4,4.8s-.8,1.6-2,1.6c-3.2,0-2.4-4,1.6-8.3,1.9-2,4.1-3.7,4.9-3.7s1.7-.9,2-2,1-2,1.5-2,.4,1.5-.2,3.2ZM92,314.2c-.1.7-1.2,2.6-2.5,4.3-1.9,2.3-2.5,2.6-2.5,1.2,0-2.1,2.8-6.7,4.1-6.7s.9.6.9,1.2ZM68,321.7c-.7,2.1-1.9,5.1-2.7,6.6-1,1.9-1.3,4.2-.9,6.8.7,4.6.3,4.9-1.6,1.1s-1.1-3.7-.7-5.2c2.8-9.6,3.5-11.4,4.7-12.7,2.1-2.1,2.5-.9,1.2,3.4ZM112.8,325.5c.3,2.4-9.6,17.7-10.9,16.9-1.8-1.1-.8-3.5,3-7.3s6.1-8.1,4.6-8.1-2,1.3-3.7,3c-5.4,5.5-5.7,2.9-.4-4.3,2.5-3.4,6.9-3.5,7.4-.2ZM71.3,328c-.3,1-1.1,2.5-1.9,3.1-1.1.9-1.4.8-1.4-.5,0-2.4,1.9-5.8,3-5.1.4.3.6,1.4.3,2.5ZM84,331.9c0,1.1-.6,2.6-1.2,3.3-3.3,3.4-6.6,8.7-8.3,13-1.7,4.7-3.5,6.3-3.5,3.3s4-12.2,5.9-13.9c1.1-1,2.5-3.1,3.1-4.7,1.4-3.3,4-3.9,4-1ZM97.6,342.6c-.9,2.3-2.6.6-2.4-2.4s.4-3.1.7-3.7c.7-1.4,2.4,4.3,1.7,6.1ZM82.5,341.9c-.2,3.3-4.7,11.1-5.3,9.2-.5-1.5,3.7-12.1,4.8-12.1s.7,1.3.5,2.9ZM90,345c0,1-.8,2.4-1.8,2.9s-2.7,2.6-3.7,4.5c-2.1,3.9-3.2,4.5-4.1,2.2-.5-1.3,1.6-5,5.5-9.9,1.9-2.3,4.1-2.2,4.1.3ZM100.3,348.4c1.5,1.2,1.7,2.6,1.4,8.7-.3,7.7-2.5,12.9-5.3,12.9s-2.6-2.6-.5-6.8c1.9-3.7,1.9-4.3.6-6.9-1.6-2.9-2-7.5-.8-8.6,1-1,2.6-.8,4.6.7ZM93,352.1c0,2.9-5.4,9.9-7.7,9.9s-2.4-3,.7-7c2.9-3.7,7-5.4,7-2.9ZM93,362c0,.5-.4,1-1,1s-1-.5-1-1,.5-1,1-1,1,.4,1,1Z"/>
  <path class="st0" d="M109.6,167.6c-.9,2.3-.7,5.4.3,5.4s2.1-3.3,2.1-5.8-1.7-1.5-2.4.4Z"/>
  <path class="st0" d="M175.7,77.6c-1.1,1.1-.8,7.2.3,7.9s3.2-4.1,2.8-6.3c-.3-1.7-2.1-2.6-3.1-1.6Z"/>
  <path class="st0" d="M136.5,80.9c-6.1,3.5-8.9,6.5-8.2,8.6,1,2.4,3.1,1.8,6.6-2s4.9-4.3,5.8-1.9c.4,1-.6,2.6-2.8,4.6-3.1,2.9-3.2,3.1-1.4,4.4,1,.8,2.5,1.4,3.2,1.4,1.5,0,3.3-3.1,3.3-5.7s.9-3.6,2.1-5.7c1.1-2.1,1.7-4.2,1.2-4.6-2.2-2.1-5.1-1.8-9.8.9Z"/>
  <path class="st0" d="M182.7,81.6c-1.5,1.5-.7,4.5,1.1,4.2.9-.2,1.7-1.2,1.7-2.2,0-2-1.6-3.1-2.8-2Z"/>
  <path class="st0" d="M369.8,175.3c-2.2,1.6-3.2,1.8-3.5.9-.3-.6-1.2-1.2-2-1.2s-1.4.6-1,2.2c.7,2.4.1,2.9-7.9,8.2-6.5,4.3-12.7,5.1-14.9,1.9-3.2-4.6-14.2-8.8-29.8-11.3-9.5-1.5-25,.3-33.5,3.9-20.5,8.6-29.7,11-47.1,12.3-12.8.9-13.5.9-15-1-.9-1.1-3.1-2.7-4.8-3.6-3.5-1.7-4.1-3.4-2.1-5.4s-.6-4-2.6-2.3c-1.8,1.5-3.6.6-3.6-1.8s-.4-2.1-.9-2.6c-.8-.8-1.5-6.8-2.1-16.5-.1-.8.3-3.9.9-6.8.9-4.8.7-6.1-1.5-12-1.5-3.7-3-9-3.4-11.7-.8-5.3-5.3-19.2-7.5-23.5-.7-1.4-3.1-3.8-5.4-5.3-2.9-2-4.2-3.7-4.7-6.2-.3-1.9-1.1-3.8-1.8-4.3-1.4-1.2-10.8-3.2-11.8-2.6-.6.4-4.8-.4-11-2.2-.9-.3-2,.1-2.4.8-.4.6-.2,1.4.5,1.6,1.2.4,4.5,3.3,11.3,10,3.9,3.8,11.5,19.6,13,26.9,1.1,5.6,1,6.4-.6,8.2-1.8,1.9-1.8,2.1-.2,2.7,3.5,1.3,3.8,5.2.9,10.1-2.4,4.2-2.5,4.6-.9,5.5,2.1,1.2,1.3,4.2-1.9,7.8-2.1,2.3-7.5,12.7-7.5,14.5s1.1.4,2.4.1c3.5-.9,4.2,1.1,1.7,4.5-3,4-2.7,5.2.9,4.4,3.9-.8,4,1.2.4,4.4-3.2,2.8-2,5,1.6,3.1,2.2-1.2,2.3-1.1,1.8,3.4-.5,4-.3,4.6,1.3,4.6,2.4,0,4.9,2.7,5.6,6.1.3,1.6.8,2.9,1.2,2.9.7,0,2.5-3.2,3.7-6.3.4-1,1.2-1.6,1.8-1.4.6.3,1.8.8,2.7,1.2,1.1.4,1.8,0,2.2-1.4.4-1.7,1.3-2.1,4.4-2.1s5.4.4,7.3.8c6,1.4,39.8-.2,45.5-2.1,2.8-.9,7.1-2.2,9.8-2.9,2.6-.7,4.7-1.6,4.7-2s2.2-1.4,4.8-2.2c2.7-.8,6.8-2.4,9.2-3.6,3.5-1.8,4.7-2,6.8-1.1,1.9.9,2.8.9,4.1-.2,3.3-2.9,24.1-3,24.1-.1s.5,1.4,1,1.4,1-.5,1-1c0-3,13.9,1.8,20.9,7.2,1.3,1,3.2,1.6,4.2,1.3,1-.4,2.7-.1,3.9.5,3.6,1.9,8.3,0,19.5-8,11.8-8.3,14.5-9.2,23.1-7.6,6,1.1,8.8,4.4,8.6,10.3-.2,7.3-3.9,20.3-7.1,24.8-6.7,9.5-9.3,16.4-8.5,22.8.7,5,2.3,6.6,8.6,8.1,3.6.8,4.2,3.5,3.5,14.3-.3,6-1,8.9-2.2,10.3-1.8,2-1.4,5,.5,5s2.1-2.1,3.2-4.8c1.7-3.6,2.2-6.7,2.2-13.9.1-10.1.4-9.5-7.6-14.9-3.2-2-3.8-3-3.8-5.9s.5-3.7,1-4c.6-.3,1-1.3,1-2.1s2.6-4.9,5.8-9.1c9.4-12.5,9.7-13.3,9.5-25.1-.2-9.7-.3-10.4-3.1-14-2.4-3-4.3-4.1-9.7-5.6-3.7-1-6.9-2.5-7.2-3.3-.4-1.1-.8-1-1.9.5-.7,1.1-2.5,2.3-4,2.6M172,91.8c2.2,1.8,2.1,4.2-.1,4.2s-5-4-4.4-5c.9-1.4,2-1.2,4.5.8ZM182.5,106.6c2.1,3.6,2.4,4.8,1.4,5.5-1.2.7-4.3-.3-5.2-1.9-.2-.4-.7-2.4-1.1-4.5-1-5.3,1.5-4.9,4.9.9ZM186.1,119.5c3,5.4,3.2,7.3.8,8-3,1-4.5-1.1-5.4-6.8-.6-4.3-.4-4.8,1.1-4.5s2.6,1.7,3.5,3.3ZM188.2,132.7c1.9,1.7,2.4,5.9.8,8.3-.7,1.2-1.2.7-2.5-2.2-1.6-3.9-2-7.8-.8-7.8s1.5.7,2.5,1.7ZM191.7,151.1c1,1.9.9,2.8-.3,4.7-1.4,2.1-1.3,2.5.6,4.9,2.4,3.1,2.6,6,.3,8.5-1.4,1.6-1.5,2.4-.5,5.2.7,1.8,1.2,4,1.2,4.9,0,2.4,6.8,9.7,9,9.7s5,1.1,5,2.7-.5,1.3-1.7.8c-1-.4-3.2-1.1-4.8-1.5-4.7-1.1-7.4-2.8-8.9-5.8-2.2-4.2-5.5-32.4-4.2-35.7.8-2.2,2.8-1.4,4.3,1.6ZM174,163.5c-.7.9-1.5,1.3-1.7,1.1-.7-.7.7-2.6,1.9-2.6s.6.6-.2,1.5Z"/>
  <path class="st0" d="M193.5,86c-.4.6-.1,1.7.5,2.6,1.5,1.8,4.2,0,3.3-2.2-.6-1.6-2.9-1.9-3.8-.4Z"/>
  <path class="st0" d="M80.7,89.7c-.4.3-.7,2.4-.7,4.5s-.4,3.8-1.5,3.8-1.5,1.9-1.5,10.9.4,11.2,1,11.6.9,1.4.8,2.3c-.2,1,.4,1.7,1.2,1.7s1.7-1.5,2.1-5.2c.4-2.9,1-6.4,1.3-7.8.7-2.9-.8-3.4-2.3-.8-1.2,2-1.3,1.6-1.5-5.7-.1-4.9.6-6.4,1.8-3.5,1.3,3.4,2.2,1.1,2.2-5.5-.1-6.5-.9-8.3-2.9-6.3Z"/>
  <path class="st0" d="M127.5,96.1c-1,1.5.1,2.3,2,1.5.9-.3,1.3-1,1-1.6-.8-1.3-2.2-1.3-3,.1Z"/>
  <path class="st0" d="M96.7,105.6c-1.4,1.4-.7,3.5,1.1,3.2.9-.2,1.7-1,1.7-1.7,0-1.6-1.8-2.5-2.8-1.5Z"/>
  <path class="st0" d="M72,109.6c-1.4,3.6-.8,15.6.7,16.1.8.3,1.2-1.4,1.1-5.9,0-3.5.3-7.8.7-9.6.9-4-1.1-4.5-2.5-.6Z"/>
  <path class="st0" d="M86.4,110.6c-.8,3.1,1.2,5.7,2.6,3.4.5-.8,1-2.5,1-3.8,0-3.1-2.8-2.8-3.6.4Z"/>
  <path class="st0" d="M66.4,119.5c0,4.9.3,6.5,1.3,6.5s1.3-1.5,1.1-6.2c-.4-8.3-2.3-8.6-2.4-.3Z"/>
  <path class="st0" d="M115.2,114.2c-2.1,2.1-1.3,2.9,2.6,2.6,2.5-.2,3.7-.8,3.7-1.8,0-1.9-4.6-2.5-6.3-.8Z"/>
  <path class="st0" d="M402.2,116.1c.2.6.8,1,1.3,1s1.1-.4,1.3-1-.4-1.1-1.3-1.1-1.5.5-1.3,1.1Z"/>
  <path class="st0" d="M94.5,117c-.8,1.3.4,3.2,1.6,2.5,1.2-.8,1.2-3.5,0-3.5s-1.3.4-1.6,1Z"/>
  <path class="st0" d="M62,118.6c-.9,1-1,1.8-.2,2.6,1.2,1.2,3.2.2,3.2-1.7s-1.6-2.6-3-.9Z"/>
  <path class="st0" d="M84.1,123.1c-1.1,5.2-.8,7.1.8,5.3,1.2-1.3,2.2-10.4,1.2-10.4s-1.4,2.3-2,5.1Z"/>
  <path class="st0" d="M76,131c0,2.7.6,4.5,2.1,5.9,1.9,1.7,2,2.5,1.3,8.8-.4,3.7-.7,9.5-.6,12.8s-.5,8.1-1.4,10.7c-1.6,5-1.6,11.5.1,11.1.6-.1,1.2-2.4,1.5-5s1.1-5.7,1.7-6.9c1-1.8,1.7-9.6,1.3-15.9-.2-3.5,1-6.5,2.5-6.5s1.9-4.9-.2-7.2c-.9-1-1.7-2.8-1.8-4.1-.1-1.4-.8-2.1-1.9-1.9-1.2.2-1.6-.5-1.6-2.8s-.5-3-1.5-3-1.5,1.1-1.5,4Z"/>
  <path class="st0" d="M66.2,131.6c.2,2,.9,3.9,1.6,4.2,1,.3,1.2-.6,1-3.4-.2-2-.9-3.9-1.6-4.2-1-.3-1.2.6-1,3.4Z"/>
  <path class="st0" d="M58.7,130.7c-.4.3-.7,2.5-.7,4.9,0,4.1-2.1,6.6-3.6,4.2-.4-.6-1.5,0-2.9,1.6-2.6,3-2.3,6.3.6,8.4,1,.6,2.2,2.7,2.9,4.6,1.3,4.1,4.5,7.3,5.5,5.6.4-.6-.2-2.1-1.3-3.3-2.7-2.9-4.4-7.5-3.6-9.9.6-1.9.7-1.9,3,.3,1.6,1.5,2.4,3.4,2.4,5.6s.5,3.3,1.5,3.3c2.1,0,2.1-13.7,0-16.4-1-1.3-1.3-3.2-.9-5.8.5-2.9.3-3.8-.8-3.8s-1.8.3-2.1.7ZM61.8,144.6c-1,1-2.8-.6-2.8-2.4s.1-1.5,1.7.1,1.4,1.9,1.1,2.3Z"/>
  <path class="st0" d="M71,133.5c0,2-.7,5.2-1.5,7.2-.8,1.9-1.5,5.6-1.5,8.2s-.7,5.5-1.5,6.5c-.8,1.1-1.5,2.8-1.5,3.8s-1.1,2.3-2.4,2.7c-1.3.5-2.6,1.9-2.9,3.1s-1,1.9-1.6,1.6c-1.4-.9-2.9,2.2-3.3,7.1-.3,4.5,1.3,6,2.3,2.1.5-2.1.6-1.9,1.2,1,1.1,5.2,3.3,3.5,2.9-2.2s1.3-10.6,3.8-10.6,2-1,2.5-3.3c1.1-5.3,1.6-6.7,2.5-6.7s1,1.4,1.2,3.2c.2,1.7.9,3.3,1.6,3.6.9.3,1.2-1.3,1.2-5.8s-.3-6.1-1.5-5.6c-2.2.8-3.2-2.4-1.2-3.9,1.1-.8,1.9-3.5,2.3-8.3.6-6.3.5-7.2-1-7.2s-1.6.9-1.6,3.5Z"/>
  <path class="st0" d="M149.2,131.2c-.7.7-1.2,1.7-1.2,2.3s-1.1,2.2-2.5,3.5c-2.8,2.6-3.3,5-1,5s6.4-4.9,7.2-7.8c.7-2.9-.8-4.7-2.5-3Z"/>
  <path class="st0" d="M148.5,143c-1.6,1.6-3.7,3.2-4.7,3.6-2.4.7-2.7,9.4-.3,9.4s3.5-3,3.5-5.9.6-2.1,1.4-2.1c1.6,0,4.6-4.2,4.6-6.5s-1.3-1.8-4.5,1.5Z"/>
  <path class="st0" d="M45.5,149c-.4.7.5,2.4,1.9,3.9,1.5,1.5,2.6,3.8,2.5,5.2-.1,1.6-.3,1.9-.6.6-.2-.9-.9-1.7-1.5-1.7s-.8,1.6-.2,4.7c.4,2.7.7,6.9.6,9.4-.2,3.1.3,5,1.2,5.8,2.2,1.9,3.9.5,2.5-2.1-1.2-2.3-.4-10,1.4-12.9.8-1.3.5-3-1.4-7.6-2.4-5.6-4.9-7.7-6.4-5.3Z"/>
  <path class="st0" d="M42.3,162.5c-.7.8-1.3,2.1-1.3,3s-.7,1.8-1.5,2.1c-.8.4-1.5,1.2-1.5,1.9s-.9,2-2.1,3.1c-1.6,1.4-2,2.7-1.6,5.1.6,3.6-1.1,4.6-2,1.3-.3-1.2-1.1-1.9-1.7-1.7-2,.6-1.8,4.2.4,6.2,2.9,2.6,2.6,4.7-.5,3.9-3.8-1-4.6,2.3-1.1,5.1,2.3,1.8,2.7,2.8,2.5,6.3-.3,4.8.7,6.4,2.5,4s1.6-1.4,2.3-.7c1.7,1.7,2.6-.7,1.2-3.2-.8-1.6-1.3-1.8-1.9-.9-1.2,1.9-1.7,0-1.5-5.8.1-3.4.6-5.7,1.5-6.2,1.8-1.1,3-.3,3,2.1s1.6,2.6,2.3.6c.3-.8.9-.6,2,.8,1.4,1.8,1.6,1.8,2.2.3.4-.9.2-2.5-.4-3.6s-.8-3.4-.5-5.1c.7-3.6-1.1-4.3-2.2-.9-.6,2.1-.7,2-1.9-.8-1.6-3.9-.3-6.9,2.5-5.4,1.1.6,2,.9,2.1.8,1.1-4.5.5-13.8-.9-13.8-.4.1-1.3.7-1.9,1.5Z"/>
  <path class="st0" d="M383.7,193.2c1.2,5.1.9,10.5-.9,12.5-.8,1-1.8,3-2.2,4.5-1.2,5,1.7,3.1,4.7-3,4.1-8.5,3.5-17.2-1.1-17.2s-1.2.8-.5,3.2Z"/>
  <path class="st0" d="M329.5,318.6c8-8.9,15.5-17,16.6-18.1,3.5-3.3,7.9-10.2,8.5-13.3.7-3.4-1.8-10-4.6-11.9-1.1-.8-2-2.1-2-2.9s-1.6-3.7-3.5-6.5-3.5-5.7-3.5-6.3,2.1-3.3,4.8-5.9c2.6-2.5,5.5-6.1,6.4-7.9,4.5-9.1,6.2-13.5,6-16.2-.2-7.5-1.2-14.4-2.6-18.1-.8-2.2-1.2-4.3-.9-4.8.5-.8,13.8-7.7,14.9-7.7s-.2,9.1-1.3,9.9c-1.8,1.3-6.4,13.5-7.2,19.5-1.2,9-.4,13.5,3.5,18.2,3.6,4.5,8.9,7.3,10.5,5.7s0-4.3-2.1-4.3-2.7-1.5-3.9-3.3c-1.1-1.7-2.8-4.2-3.7-5.5-1.5-2-1.6-3.3-.7-10,1-7.2,5.1-18.3,7.2-19.7,1.4-.8,2.5-8.9,1.7-12.1-.6-2.2-1.1-2.6-3.7-2.2-2,.3-3.3,0-3.6-.9-.6-1.6-1.4-1.5-7.3.5-2.5.8-6.4,2.1-8.6,2.9-5.6,1.9-7.6,6.1-5,10.5,1.3,2,1.9,5.9,2.3,12.6.5,9.4.4,9.8-2.4,13.9-1.5,2.2-5.2,6.9-8,10.3-5,5.7-5.3,6.4-5.3,11.6s2.7,12.8,8.1,18.4c2.1,2.2,3.9,4.9,3.9,6s.9,2.2,2.5,2.6c3.5.9,3.4,4.8-.2,7.1-1.5,1-6.1,5.2-10.3,9.3-4.1,4.2-10.4,10.3-14,13.6-6.1,5.7-11,12.6-11,15.7s-.9,1.2-3.1.9c-2.9-.4-3-.3-2.7,2.9.2,2.7.8,3.5,2.7,3.7,1.3.2,3.4-.2,4.7-.9"/>
  <path class="st0" d="M26.3,201.2c.3,5.9.6,7.4,2,7.6,1.4.3,1.7-.4,1.6-4-.2-6-1.2-10.1-2.6-10.5-1-.4-1.2,1.4-1,6.9Z"/>
  <path class="st0" d="M91.7,205.7c-1.3,1.3-.7,3.1,1.4,3.6,2.4.7,3.9-2.1,1.8-3.4-1.7-1.1-2.4-1.1-3.2-.2Z"/>
  <path class="st0" d="M373.4,219.7c-.3,1.6-1,4.1-1.5,5.8-1.6,5.5-1.6,12,.1,12s1.8-2,2.6-7c.6-3.9,1.5-8.5,1.9-10.3.6-2.6.4-3.2-.9-3.2s-1.8,1.1-2.2,2.7Z"/>
  <path class="st0" d="M420.7,218.7c-1.3,1.2-.7,2.3,1.3,2.3s2-.7,2-1.5c0-1.5-2.1-2.1-3.3-.8Z"/>
  <path class="st0" d="M413.1,236.1c-1.9,2.5-2,3.3-1,4.6,1.1,1.3,1,1.7-.4,2.8-1.7,1.2-2.4,4.5-.9,4.5s5.6-5.2,5.4-8c-.1-1.6.2-3.1.8-3.5,1.5-.9,1.2-3.5-.3-3.5s-2.3,1.4-3.6,3.1Z"/>
  <path class="st0" d="M316,236c-1.8,1.1-.4,4.2,1.7,3.8,1-.2,1.9-1,2.1-1.9.4-1.9-1.9-3.1-3.8-1.9Z"/>
  <path class="st0" d="M372.5,242c-1.2,2,3.2,7,6.2,7s2.9-1.8-.1-2.9c-1.3-.5-2.6-1.9-2.9-3-.5-2.2-2.2-2.8-3.2-1.1Z"/>
  <path class="st0" d="M94.5,243.1c-.4.6-.5,1.1-.4,1.3,3.7,2.4,6.2,3.6,7.9,3.6s3.8.9,6,2c4.2,2.1,7,2.6,7,1.1s-2.4-2.9-10.5-6c-8.9-3.5-9.1-3.5-10-2Z"/>
  <path class="st0" d="M316.2,244.7c.2,1,1.3,1.9,2.6,2.1,1.7.3,2.2-.2,2.2-1.7s-.6-2.1-2.6-2.1-2.5.5-2.2,1.7Z"/>
  <path class="st0" d="M316.2,251.3c-1.5,1.8-.5,2.7,3,2.7s2.9-.4,2.6-1.8c-.4-2.1-4.1-2.8-5.6-.9Z"/>
  <path class="st0" d="M411,251.6c-1.1,1.3-1,1.9.7,3.6s2.8,1.8,3.7,1.5c1.3-.5,1.3-.9,0-3.6-1.7-3.5-2.6-3.8-4.4-1.5Z"/>
  <path class="st0" d="M117,252.5c0,.8.6,1.5,1.4,1.5s3.1,1,5.1,2.1c3.5,2.1,3.8,2.1,7.1.6,4-2,4.6-4.2.9-3.3-1.4.4-4.6,0-7.1-.9-5.6-1.9-7.4-1.9-7.4,0Z"/>
  <path class="st0" d="M89.5,257c-1.8,2.8-3.6,11.3-2.6,12.3s1.4.1,2.2-1.9c.6-1.6,1.7-4.4,2.5-6.2s1.4-3.7,1.4-4.2c0-1.3-2.7-1.3-3.5,0Z"/>
  <path class="st0" d="M377.6,261.2c-.9,3.5-.7,6.8.4,6.8s3-4.2,3-7.1-2.6-2.4-3.4.3Z"/>
  <path class="st0" d="M417.2,260.4c-1.2.6-2.8,2.6-3.4,4.3-.9,2.4-1.8,3.3-3.5,3.3-2.5,0-2.9,1.4-1.3,5.4.9,2.5-.2,3.7-1.5,1.6-1.1-1.8-2.5-1-2.5,1.4s-.4,2.7-.9,3.1c-1.7,1-2.4,11.1-1.1,14.9,1.3,4,4.8,5.3,3.5,1.3-1.8-6-1.8-6.9.1-6.5,1.2.2,2,1.3,2.2,3.1.4,3.2,4.4,6.2,6.8,5.3,1.5-.6,1.5-.9-.4-2.7-2.6-2.4-2.7-3.6-.5-6.1,1.5-1.7,1.5-1.8-.5-1.8s-2.2-.6-2.2-1.5c0-2.1,2.7-3,4.6-1.5,1.1,1,1.8,1,2.7.1s.6-1.6-1-3.3c-1.9-1.8-2.4-1.9-3.8-.8-2.5,2.1-4.4-.4-2.1-2.9,1.1-1.2,1.5-2.7,1.1-4.3-.5-1.7,0-2.9,1.9-4.6,1.6-1.3,2.6-3.2,2.6-4.9s.3-2.4,1.2-1.5c1.8,1.8,3.8,1.4,3.8-.8s-2.1-2.5-5.8-.6Z"/>
  <path class="st0" d="M104,265c0,2.3,2.5,2.7,3.3.6.7-1.6-.1-2.6-2-2.6s-1.3.9-1.3,2Z"/>
  <path class="st0" d="M65.5,266c.3.5.8,1,1.1,1s.4-.5.4-1-.5-1-1.1-1-.7.4-.4,1Z"/>
  <path class="st0" d="M80.8,269.1c-1,1.7-1.8,3.7-1.8,4.4s-1.6,3.5-3.6,6c-1.9,2.6-3.3,4.9-3,5.2.9.9,6.6-3.8,6.6-5.4s1.3-4,2.9-6.9c2.7-4.6,3-6.4,1.2-6.4s-1.4,1.4-2.3,3.1Z"/>
  <path class="st0" d="M96.2,275.2c-.7.7-1.2,2.2-1.2,3.5,0,2.6-2,7.3-3.1,7.3s-.4,1.2,0,2.7c.9,3.5,3.5,3.6,3.9.3.2-1.4,1-5,1.8-8,1.4-5.5.8-8-1.4-5.8Z"/>
  <path class="st0" d="M112,275c0,.5.7,1,1.5,1s1.5-.5,1.5-1-.7-1-1.5-1-1.5.4-1.5,1Z"/>
  <path class="st0" d="M102.2,279.2c-1.6,1.6-1.5,4.8.2,4.8s3.9-2.7,3.2-4.5-1.8-1.9-3.4-.3Z"/>
  <path class="st0" d="M114.4,282.7c-.3,1-1,2.6-1.6,3.7-.7,1.3-.6,2.2.2,3,1.5,1.5,5-2.7,5-6s-2.8-3.3-3.6-.7Z"/>
  <path class="st0" d="M393.5,284.9c-.6,1.1.9,2.3,1.9,1.4.9-.9.7-2.3-.3-2.3s-1.2.4-1.6.9Z"/>
  <path class="st0" d="M335,292.5c-.5,1.4-1.4,2.5-1.8,2.5s-5.4,4.3-10.8,9.6-10.9,10.3-12.1,11.2c-2.7,1.7-3.2,6.2-.7,6.2s2.8-1.5,4.2-3.3c1.5-1.7,7.8-8.2,13.9-14.2,10.6-10.4,13.4-14.5,9.8-14.5s-2,1.1-2.5,2.5Z"/>
  <path class="st0" d="M399.7,295.7c-.8,1.4.2,7.3,1.9,10.9,1.7,3.5,2.8,4.2,3.9,2.4.3-.6,1.7-1,3-1,3.1,0,4.3-2,1.6-2.7-1.6-.4-2-1.1-1.6-2.4.7-2.1-1.9-2.8-3-.9-.9,1.5-3.6-.8-3.4-2.9.2-2.8-.1-4.1-1-4.1s-1.2.3-1.4.7Z"/>
  <path class="st0" d="M390,300c0,1.5.5,2,1.8,1.8.9-.2,1.7-1,1.7-1.8s-.8-1.6-1.7-1.8c-1.3-.2-1.8.3-1.8,1.8Z"/>
  <path class="st0" d="M395.7,308.2c.6,6.1,1.5,7.5,3.2,5.4,1-1.2,1-2.4-.1-5.8-2.1-6.3-3.9-6.1-3.1.4Z"/>
  <path class="st0" d="M390.5,307.7c.9,4.7,1.2,5.3,3.2,5.3s1.4-.6.8-2.3c-.3-1.2-.9-3.2-1.2-4.5-.3-1.2-1.2-2.2-2-2.2-1.2,0-1.4.8-.8,3.7Z"/>
  <path class="st0" d="M384.7,306.7c-1.3,1.2-.7,4.3.7,4.3s2.8-1.4,2-3.4c-.7-1.7-1.6-2-2.7-.9Z"/>
  <path class="st0" d="M402.1,314.1c-2.3,1.4-3,2.4-2.3,3.1,1.3,1.3,7.2-1.7,7.2-3.7s-.9-1.9-4.9.6Z"/>
  <path class="st0" d="M382.3,321.2c.3,3.8.8,5.3,1.8,5.3s1.4-1.3,1.4-5-.4-5-1.7-5.3c-1.6-.3-1.7.4-1.5,5Z"/>
  <path class="st0" d="M400.5,320c-1.1.4-2.8,2-3.9,3.4-1.4,2-2.2,2.3-3.7,1.6-2.5-1.4-2.9-1.3-2.9,1,0,4.1,3.6,3.4,10.8-1.9,4.6-3.5,4.4-6.1-.3-4.1Z"/>
  <path class="st0" d="M398,329.6c0,.8.5,1.2,1,.9.6-.3,1-1,1-1.6s-.4-.9-1-.9-1,.7-1,1.6Z"/>
  <path class="st0" d="M388.6,330.8c-.8,1.3,2.3,5.2,4,5.2s1.4-.6,1.4-1.3c-.1-1.6-4.7-5-5.4-3.9Z"/>
  <path class="st0" d="M116.8,334.7c-.8,1-2.2,3.1-3.2,4.6-1.7,2.7-1.7,3,0,4.9,1.7,1.8,1.9,1.8,3,.3.7-.9,1-2.3.8-3-.3-.7.2-2.7,1-4.4.9-1.6,1.6-3.2,1.6-3.6,0-1.1-1.7-.4-3.2,1.2Z"/>
  <path class="st0" d="M120.2,343.2c-1.6,2.5-3.5,4.2-4.4,4-.8-.1-2,.3-2.5,1-1.6,2.2-3.2,11.4-2.6,15.2.8,5.2,2.9,3.9,2.5-1.6-.3-3.4.2-5,1.8-6.9q2.1-2.4,1.6,2.6c-.3,2.7-.8,6.7-1.2,8.7-.6,3.6-.5,3.8,2,3.8s3.1.5,1.1,5.3-1.9,7,.4,9.8c2.3,2.9,3.6,2,3.3-2.5-.2-2,.4-3.8,1.3-4.6.8-.7,1.5-1.8,1.5-2.4s2.5-4.1,5.5-7.8c3-3.6,5.5-7.1,5.5-7.7,0-3.2-4.7.9-9.1,7.7-1.5,2.3-2.5,3-3.2,2.3-1.1-1.1,4.4-10,8.7-14,1.4-1.4,2.6-3.1,2.6-3.8,0-2.7-3.4-.8-6.7,3.7-6.6,8.8-8.1,10.5-8.8,9.8-1.7-1.6.7-8,4.6-11.9s3.9-4.4,3.9-4.9c0-1.6-3-1.2-3.6.5-1,2.4-2.4,1.7-2.4-1.2s.9-3.7,2.1-4.9c2-2.1,1.9-4.4-.1-4.4s-2.2,1.9-3.8,4.2Z"/>
  <path class="st0" d="M134.3,345.6c-.8,2.1,1.3,4.2,2.8,2.7s.5-4.3-1.1-4.3-1.3.7-1.7,1.6Z"/>
  <path class="st0" d="M374.6,347.7c-1.1,1.2-.6,6.9.8,8.9,1.2,1.5,1.7,1.7,2.7.6,1-.9,1-1.5.1-2.4s-1.2-2.4-1.2-3.9c0-2.8-1.2-4.4-2.4-3.2Z"/>
  <path class="st0" d="M139.3,351.7c-.7.3-1.3,1.3-1.3,2.4,0,2.3,3.5,2.6,4.3.5.7-1.7-1.3-3.5-3-2.9Z"/>
  <path class="st0" d="M351.5,356c-.7,1.1.8,4.1,2.9,6,2,1.6,2,4.7.1,5.8-2.1,1.1-1,9.2,1.2,9.2s1.4-.7,1-2.6c-.4-2,0-2.8,1.5-3.2,1.3-.3,1.7-1,1.3-2.1-.3-.9-1.1-3.7-1.6-6.4-1.4-6.1-4.6-9.6-6.4-6.7Z"/>
  <path class="st0" d="M369.6,355.9c-.9,1.4.5,6.9,2,8.2,2.2,1.8,2.7-1.1.9-5.4-1.6-3.9-2-4.3-2.9-2.8Z"/>
  <path class="st0" d="M150,357c0,.5.5,1,1,1s1-.5,1-1-.4-1-1-1-1,.4-1,1Z"/>
  <path class="st0" d="M362.9,357.7c0,1.1-.3,1.3-.6.5-.8-2.1-2.3-1.3-2.3,1.4,0,3.9,1.8,6.4,4.5,6.4s3-1.2,1.9-6.9c-.7-3.3-3.3-4.3-3.5-1.4Z"/>
  <path class="st0" d="M347.6,374.7c.3,2.7.9,5.2,1.1,5.6.8,1.4,3.4-1.5,2.9-3.2-.2-.9-.7-2.8-1-4.4-.4-1.5-1.3-2.7-2.2-2.7-1.3,0-1.4.8-.8,4.7Z"/>
  <path class="st0" d="M341.7,376.7c-1.3,1.3-.7,6.3.7,6.3,2.1,0,2.9-1.7,2.2-4.6-.6-2.4-1.7-3-2.9-1.7Z"/>
  <path class="st0" d="M169.5,386.2c-1.2,3.3-.9,6.2.7,6.6,1.1.2,1.8-.6,2.3-2.7.7-3.2.1-5.1-1.6-5.1s-1.2.6-1.4,1.2Z"/>
  <path class="st0" d="M181.7,386.7c-1.4,1.3-.6,3.3,1.3,3.3s2-.7,2-2"/>
  <path class="st0" d="M184.3,393.6c-.8,2,.8,3.6,2.6,2.5,1.5-1,.8-4.1-.9-4.1s-1.3.7-1.7,1.6Z"/>
  <path class="st0" d="M179.7,401.7c-1,.9-.9,4.3.2,4.3s2.3-3.2,1.3-4.2-1.1-.5-1.5-.1Z"/>
  <path class="st0" d="M243.7,404.7c-.3.5-.5,2.5-.5,4.5,0,3.1.4,3.8,2,3.8s1.8-.5,1.5-1.3c-.2-.6,0-2,.5-3,1.3-2.6-2-6.4-3.5-4Z"/>
  <path class="st0" d="M250.5,405c-.8,1.3.3,3,2,3s2.7-2.4,1.8-3.4c-1-.9-3.1-.7-3.8.4Z"/>
</svg>