<?xml version="1.0" encoding="UTF-8"?>
<svg id="Capa_1" xmlns="http://www.w3.org/2000/svg" version="1.1" viewBox="0 0 443 434">
  <!-- Generator: Adobe Illustrator 29.0.0, SVG Export Plug-In . SVG Version: 2.1.0 Build 186)  -->
  <defs>
    <style>
      .st0 {
        fill: #b87333;
      }
    </style>
  </defs>
  <path class="st0" d="M254.5,3.1c-2.7.6-6.8,1.8-9,2.9-2.2,1-8.9,4.2-15,7.1-18,8.5-21.4,9.2-47.5,9.5-21.8.2-29.9,1.2-37.5,4.4-1.1.5-2.9,1.1-4,1.4-6.7,1.7-17.4,5.9-20.6,8-2,1.4-6.4,3.6-9.6,4.9-10.6,4.3-23.4,13.6-43.7,31.7-11,9.8-18.5,19.4-28.8,37-10.1,17.3-23.3,49.6-25.3,62-.4,2.4-1.1,5.1-1.5,6-.4.8-1.5,5.1-2.5,9.5-.9,4.4-2.3,10.5-3.1,13.5-1.9,7.5-3.5,18-4,27-.3,4.1-.7,8.2-1.1,9-.9,2.4-1,12.1-.1,12.6.4.3.3,1.4-.3,2.5-.6,1.3-.7,2.5-.1,3.2.5.7,1.2,3.7,1.6,6.7.3,3,1.5,9.1,2.7,13.5,1.1,4.4,2.4,9.4,2.8,11.1.5,1.8,1.6,4.7,2.6,6.5.9,1.9,2.5,5.9,3.5,8.9,1.9,5.9,9.2,20.1,14.9,29.1,2,3.1,5.2,8.2,7.1,11.3,4,6.7,16,21.6,23.6,29.6,7.9,8.2,13.4,14.4,13.4,15.2s1.2,1.4,8.5,6c1.1.7,4,2.9,6.5,4.8,8.9,7,11.6,8.7,19,12.4,4.1,2.1,8.9,4.6,10.5,5.6,1.7.9,5.5,2.5,8.5,3.5s7.2,2.6,9.3,3.7c2.9,1.5,6.9,2.1,16.3,2.5,11.1.5,12.4.4,13-1.1.9-2.2-1.2-4.4-2.7-2.9s-14.7.4-18.4-1.5c-1.6-.9-4.6-1.7-6.5-1.8-5.6-.3-20.4-6.2-25.3-10.1-1.6-1.3-3.8-2.3-4.9-2.3-1.7,0-5-1.9-9.3-5.2-8.9-7-13.9-10.7-17.2-12.7-2.1-1.4-5.6-4.6-7.7-7.3-2.1-2.6-6.8-7.8-10.5-11.6-3.6-3.7-7.7-8.3-9.1-10.2-1.4-1.8-4-4.9-5.8-6.9-2.8-3.1-9.3-13.2-14.3-22.2-.9-1.6-2.2-3.6-3-4.5-1.9-2.3-12.9-24.6-12.9-26.2s-1.1-3.4-2.3-6c-1.3-2.6-2.9-7-3.6-9.7-.7-2.8-1.7-6.6-2.2-8.5-3.3-11.8-4.9-34.9-3.3-47.5,1.5-11.7,2.7-18.7,3.9-23,2.3-8.9,3.8-14.9,4.6-19.5,2.4-14,13.4-45.6,20.4-59,.7-1.4,2.8-5.4,4.6-9,2.6-5.2,11.5-19.8,15.1-24.5,1.4-1.9,9.4-11,12.5-14.2,10.1-10.6,35.8-29.7,45.3-33.7,2.5-1,6.1-2.7,8-3.8,5.6-3.1,12.3-6.1,15.5-6.9,1.7-.4,6.4-1.9,10.5-3.4,12.2-4.2,15.3-4.6,39.3-4.6s23.8-.4,25-.8c1.2-.5,4.2-1.5,6.7-2.2s5.7-2.1,7.2-3.1c1.4-1,2.9-1.8,3.3-1.8s3.8-1.5,7.8-3.4c14.5-6.8,16.8-7.6,25.1-8.8,6.9-1,9.2-.9,12.8.2,6.7,2.1,6.5,2.7-1.7,3.3-9.7.9-13.2,2.8-14.6,8.2-1.3,4.8-.4,6.6,3.9,8,1.7.6,4.4,2,6,3.2,2.7,2,3,2,4.6.5,1.6-1.6,1.8-1.6,2.7,0s4.9,2.6,4.9,1.2-2.3-2.8-5.1-5.5c-4-3.9-5-5.5-4.7-7.6.3-2.8.4-2.8,8.5-3.1q8.2-.3,9.2,3.5c.6,2.1,1.4,6.3,1.7,9.3.4,3,1.3,6.5,2.1,7.8,2.8,4.6,8.7,10.4,12.4,12.2,3.9,2.1,5.6,4.7,3.9,6.4s-1.2,2.4,1.2,2.8c1.7.2,2.5,1.2,3,3.8.4,1.9,1.1,5.5,1.7,8,.8,4.2.6,8.3-1.5,22.2-.4,2.6-1.1,3.8-2.3,3.9-1.5,0-11.5,14.2-11.6,16.4,0,.5,1.2.9,2.8.7,1.9-.3,2.7.1,2.7,1.2s.9,2.5,2.1,3.7c3,3,1.8,5.2-2.5,4.3-3.2-.5-3.7-.3-5.5,2.7q-2,3.2-3.2.6c-1-2.2-.8-3.2.8-6.6,1.9-3.8,1.9-4,.1-4.4-1.5-.4-1.8-1.5-1.8-6.5s.4-6.1,1.5-6.6c1.6-.6,2.1-4.6.5-4.6s-1.4.8-1.9,1.7c-1,1.7-1.2,1.7-2.6-.1-1.9-2.5-1.9-5.4-.1-7.5,2.1-2.5,5.2-9,8.1-16.9,2.2-5.9,2.6-8.2,2-12-.7-4.4-6-14.9-10.3-20.2q-2-2.5-4.2-.5c-2.4,2.2-5.2,1.2-5.9-2.1-.4-2.5-2-4.4-3.7-4.4s-1.8,2.4.1,4c1.5,1.3,2,6.7.9,10.7-.8,3-5.2,5.9-6.7,4.4s-4.5-1.3-5.5.5c-1.6,2.9-3.3.6-2.6-3.6.5-2.8.1-5.1-1.1-7.7-1-2-2.1-4.8-2.5-6.2-.4-1.6-1.7-3-3.3-3.5-3.6-1.3-7.3,2.1-8.2,7.5-.4,2.1-.9,3.9-1.2,3.9s-1.7-.8-3.1-1.8c-2.7-1.8-13.4-7.2-14.4-7.2s-1.3,1.8-2.4,4c-1.7,3.7-2.2,3.9-5,3.4-1.8-.3-3.5-.1-3.8.5-.4.6-2.1,1.1-3.8,1.1-3.9,0-13.3,6.1-15.3,10-1.9,3.7-4.1,4.3-12,3.5-9.1-1-15.3.9-17.1,5.2-4.9,11.5-3.7,10.6-13.8,11.7-6,.7-7.4,2-11.5,9.5-4.1,7.7-4.3,14.9-.6,22.1,1.4,2.8,3.2,5,4,5,2.2,0,1.8-2.7-.7-6.3-1.9-2.6-2.3-4.4-2.1-9.6.1-5.4.7-7.1,3.7-11.6s5.7-6.5,13-6.5,5.5-1,8.6-8.1c2.3-5.2,3.5-6.6,6.2-7.5,7.1-2.6,9.9-1.6,11.2,4,1.2,5,4.4,8.6,7.6,8.6,5.3,0,7.5-4.7,4.9-10.4-2.4-5.3,5.7-14.6,12.7-14.6s3.6-.5,3.9-1c.9-1.4,4.2-1.2,7.5.5,1.8.9,3.3,2.8,4.1,5.2.6,2.1,1.9,4.9,2.7,6.2,1.8,2.6,8.4,7.1,10.6,7.1s1.7.9,2.1,2c.8,2.4,8.2,8.4,8.9,7.2.3-.5,0-2.3-.6-4-1-2.5-.9-4.2,0-7.7,1.1-4.2,1-5-1.4-10.2-1.4-3.2-2.3-6.6-2-7.8,1.2-4.7,4.8-11.6,5.9-11.2,2.2.7,4.9,10.9,4.7,18.1,0,3.7.4,7.4,1,8.1,1.3,1.6.3,20.5-1.1,20.5s-1.4-1.2-2.1-2.7c-1.6-3.2-3.8-4.2-3.8-1.6s1.4,3.2,3,4.8c3.3,3.1,5.5,9.4,4.5,12.5-.5,1.6-.2,2,1.8,2s3.6,1.3,5.6,3.5c1.7,2,3.1,3.7,3.1,3.9,0,.5-10.5-3.1-12.9-4.4-1.2-.6-2.1-1.7-2.1-2.5s-2.5-3-5.5-5.1c-6.1-4-12.9-12.6-14.7-18.6-.8-2.6-1.7-3.8-3-3.8s-1.8.4-1.8.8c0,2.9,3.6,10.3,6.5,13.6,4.7,5.2,4.4,7.2-.5,4.6-2.6-1.4-5.3.4-6.8,4.3-1.6,4.2.2,6.1,2.6,2.9,2.4-3.1,5.6-2,4.7,1.6-.5,2.2-.3,2.4,1.9,2,3.6-.7,3.6-.5-1.7,9.8-3.1,5.9-3.3,7.4-1.2,7.4s5.9-7.2,6-9.5c.1-3.1,2.7-4.3,5.5-2.5,1.3.8,1.2,1.1-.4,2.3-1.9,1.4-1.8,1.6,1.7,4.7,2,1.8,3.7,3.8,3.7,4.5,0,1.2-4,8.3-9.5,17-8.4,13.2-11.3,15.2-8.1,5.5,2-6.1,2-7.4.1-6.6-1,.3-1.5-.1-1.5-1.4s-.4-2.1-.9-2.4c-1.3-.9-3.2,1.9-2.5,3.8.4,1,0,1.8-1.2,2.3-1.1.3-3.9,2.4-6.4,4.5s-5.3,4.5-6.2,5.3c-1,.8-3.5,1.6-5.5,1.8-2.9.2-3.9.7-4.1,2.2-.6,3.9-2.3,7.1-4.3,8.3-2.8,1.8-3.4.9-1.5-2,2.3-3.5.6-4.4-2-1.1-1.6,2-2.6,2.5-3.3,1.7-.8-.7-.6-1.6.9-2.9,1.1-1,2-2.2,2-2.7,0-1.6-2.9-.8-4,1.2-1.5,2.8-3.2,2.5-2.4-.5.7-2.7-1-3.5-2-1-.7,1.9-2.5,1.9-4.7-.1-1.9-1.7-5.3-1.2-4.7.7.2.6,2.4,2.3,4.8,3.6,2.5,1.4,5.2,3.1,6,3.8s3,2,4.8,2.9c2.5,1.3,3.2,2.2,2.7,3.6-.3,1,0,2.2.7,2.6.6.4,1.4.2,1.6-.4.7-2.2,2.9-1.2,4.2,1.8.7,1.6,1.9,3,2.7,3s1.3-1,.8-4.8c-.6-4.9-.1-4.8,3.1.5,2.1,3.2,2.8.4.8-3.2-1.7-3.2-2.2-3.4-5.1-2.9-3.6.7-4.1-.2-1.8-3.2.8-1,1.5-2.7,1.5-3.7s.8-1.7,2-1.7c2.2,0,2.6,1,.9,2.7s1,5.3,3.3,5.3,2.5,1.7,3.7,4.5c2.4,5.4,4.5,6,3.5,1.1-.5-3.1-.3-3.5,1.8-3.8,3.4-.5,6.7,3.9,7.3,9.9q.5,4.8-1.5.7c-2.2-4.7-5-7.6-5-5.3s.9,3.8,2,6.8c1.2,2.9,1.9,5.9,1.7,6.5-.3.6-1-.1-1.6-1.7-.6-1.5-1.6-2.7-2.2-2.7s-.8.7-.5,1.6c.4.9.2,2.2-.4,2.8-.6.8-.5,4.6.5,11.2.8,5.4,1.4,11.2,1.2,12.8-.2,2.4.3,3.1,2.3,3.6,2.1.5,2.5,1.2,2.2,4-.1,1.8-.8,4.4-1.6,5.9-2.4,4.7-4.6,12.3-3.9,13.4.7,1.2,2.5,11,2.4,13.7,0,.8-.3,2.7-.7,4.2-.9,3.8,1.1,3.6,3.1-.2.9-1.7,1.3-4,.9-5.4-.6-2.6,1.1-4.5,2-2.1s1.2,1.5,2.1,1.5c1.9,0,1.9-.4-.1-4.2-1.1-2.2-1.4-4.3-.9-7.5.5-3.5.4-4.4-.7-4.1-.7.3-1.4,1.4-1.6,2.6s-.8,2.2-1.3,2.2c-2.1,0-1.9-3,.6-10.3,1.4-4.1,2.5-8.5,2.5-9.7s.4-2,1.8-1.6c1.3.5,2.2-.1,3-1.9,2.4-5.2.6-7.8-1.8-2.8q-1.4,2.8-2-1.2c-.3-2.2-.9-4.6-1.3-5.3-1.3-2,.2-5.2,2.9-6.2,2.1-.9,5.1-5.7,6.8-11.3.5-1.5,4.6-2.6,4.6-1.2s-1.3,2.9-3,5.8c-1.6,3-3,6.5-3,7.8q.1,2.4,2,0c1.1-1.3,2-3.1,2-4,.1-3.8,2.8-5.5,8.6-5.4,5.6.2,8.4,1.4,8.4,3.9s-.9,1.5-1.9,1.9c-1,.3-3.1,3.1-4.7,6.3-1.5,3.1-3.1,6.6-3.7,7.6-.5,1.1-1.3,4.2-1.7,7-.5,2.8-1.1,6.1-1.5,7.4-.7,2.1-.5,2.2,2,1.6,1.6-.4,4.8-2,7.1-3.6,2.3-1.5,4.6-2.8,5.2-2.8s3-2.2,5.6-5c4.2-4.5,4.6-5.4,4.6-9.8s0-4.9-4.5-5.5c-2.6-.2-4.9-.7-5.2-1.1-.4-.3.5-1.9,1.9-3.4s3.9-5.7,5.7-9.5c3.3-7.1,5.1-8.5,5.1-3.9s5.4,9,6.6,7c.4-.7,1-4.2,1.3-7.8.6-6,.8-6.5,2.9-6.3,3.5.4,7.5,3.4,6.3,4.6-1.7,1.7-1.3,9.3.4,10.7.8.7,2.3,3.1,3.4,5.4,1,2.2,3.4,6.1,5.4,8.4,2.1,2.4,3.7,5,3.7,5.6s-1.7,3.9-3.8,7.2c-2.1,3.2-5.8,9.2-8.1,13.2-3.5,5.8-4.6,7-5.7,6.1-1.6-1.3-1.9-4.5-.5-5.3.5-.3,1.2-1.8,1.6-3.3.9-4.1,5.6-10.4,8.3-11.4,1.3-.5,2.2-1.5,1.9-2.2-.4-1.1-1.6-1.2-6.2-.5-2.2.3-2.2.4-1-10.2.5-4,.3-6-.8-7.4-3.2-4.4-6,1-7.3,14.4-.6,6.4-.7,6.6-6.7,12.5-3.6,3.5-9.1,7.4-12.9,9.4-3.7,1.8-7,3.6-7.4,4s-2,.7-3.7.8c-1.8,0-4.1.3-5.2.5-1.4.2-2-.3-2.1-1.7-.2-3.6-.4-3.9-1.6-2.7-1.9,1.9-3.6,1.4-4-1-.4-3-3.8-3.7-3.8-.9s.5,2.3,1,2.6c.6.3,1,1.9,1,3.4s.5,3.2,1.1,3.8.7,1.7-.2,3.1c-.7,1.2-1,2.4-.7,2.8,1.1,1,2.8-.6,2.8-2.7s1.6-2.6,2.3-.7c.4,1.4-3.4,10.3-5.2,12.1s-1.1,2-1.1,3.2c0,5.1-15.6,36.7-18.7,37.9-.9.4-1.3-.5-1.3-3,0-4,1.9-8.2,5.3-11.6,1.2-1.3,4.4-7.7,7.1-14.3s5.2-12.4,5.7-12.9c1.3-1.5,1.1-2.6-.5-2.6s-8.2,13.1-10.6,20.5c-.7,2.2-2.7,5.4-4.4,7.1s-3.7,5.1-4.5,7.7c-2.2,7.7-5,11.1-9.4,11.5-2.8.2-3.7,0-3.7-1.2,0-1.9-1.6-2.1-2.7-.3-1.2,2-5.5,4.7-7.6,4.7s-1.7-.5-1.3-2.8c.4-1.7.1-3.5-.8-4.7-1.4-1.9-1.5-1.9-2.5.8-.6,1.6-1.1,3.5-1.1,4.3s-.6,1.4-1.2,1.1c-.7-.2-1.2-1.4-1-2.5.5-3.1-.3-2.7-2.7,1.4-1.7,2.9-2.6,3.5-4.9,3.2-2.6-.3-2.7-.4-2.4-6.3q.3-6-2.1-3.2c-4.1,4.8-5.2-.6-1.6-8,2-4.2,2.3-9,.4-8.5-.5.1-1.4,1.4-1.8,3-.5,1.5-1.2,3.6-1.6,4.7-.5,1.1-1.4,3.2-2,4.8-.6,1.5-2.2,3.2-3.6,3.7-1.8.7-2.5,1.7-2.5,3.5s-.7,4-1.6,5.7-1.3,4-1,5.4c.8,2.9-.6,3-4.9.5-2.7-1.6-3-2.2-2.7-6.2.2-2.4.8-6.2,1.2-8.4.5-2.2.5-4.4.1-4.8-1.7-1.7-3,2.3-4.1,12.8-.7,6.1-1.6,11.4-2.1,12-1.9,1.9-3-1.9-2.5-8.3.4-4.8.2-6.2-.8-6.2s-2.6,4.2-2.6,9.5-2.2,6-4.6,5.1c-1.7-.6-1.7-2.1.2-11.4.4-2.1.3-3.2-.5-3.2-1.6,0-3.1,4.2-4.4,12.6-1.1,6.2-1.6,7.4-5,10.3-4.3,3.8-7.7,3.7-5.5-.1.6-1.3,1.2-4.6,1.3-7.3,0-2.8.5-6.7.9-8.8.6-2.5.5-3.7-.3-3.7-2,0-3.4,4.4-3.6,10.9-.1,4-.6,6.6-1.3,6.9-.7.2-1.2,1.7-1.2,3.2s-.5,3.2-1,3.5c-1.5.9-4-1.4-4-3.6s-3.6-2.5-5,.1c-1.3,2.5-2.1,2.5-5,0-1.3-1.1-2.7-2-3.3-2-1.2,0-.2-8.1,1.6-13,5.1-13.7,13.9-26,18.8-26s8.8-3,10.8-5.9c2.7-3.7,2.7-9.9.1-14.8s-2.6-8.9,0-10.5c2.5-1.6,2.5-2.1-.2-8.5q-2.2-5.3,0-8.3c1.3-1.7,2.2-4.4,2.2-6.5s.4-3.5,1.5-3.5c2.3,0,1.8-1.4-1.4-3.7-3.9-3-9.3-3.8-14.7-2.3-4.2,1.2-4.6,1.1-7-1.1-3.2-3-5.4-7.1-5.4-10s1.8-4.4,3.9-7c2.2-2.5,4.9-6.4,6.1-8.5,1.2-2.2,3-5.3,4-6.9,1.1-1.7,3-5.1,4.4-7.6,1.3-2.5,3.2-5.2,4.1-5.9,2.7-2.2,9.3-17,10-22.5.9-5.9,3-9.6,10.7-18.9,5.7-6.8,7.2-10.6,4.3-10.6s-2.2,1.6-3.1,3.5c-.9,2-2.6,4.3-3.8,5.3-3,2.4-10.6,13.7-10.6,15.8,0,5-7.6,23-12,28.6-1.7,2-3,4-3,4.3,0,1.1-13,20.5-16.2,24.1-2.8,3.1-2.9,3.8-2.3,8.4,1,7.5,6.5,13,13,13s4.1.6,6,1.4q3.4,1.5,3.3,9.8c-.1,6.2.3,9.1,1.6,11.6,1.6,3.2,1.6,3.5,0,5.9-1.9,3.1-1.4,11.6,1,14.2,3.5,3.9-3.1,14.1-9.2,14.1s-3.6.6-4.1,1.2c-.5.7-2.7,3.3-4.9,5.8s-6,8.9-8.6,14.3c-4.3,9.2-4.7,10.4-4.9,18.8q-.2,9.1,3.2,12.1c2.8,2.5,3.9,2.9,6.5,2.3,5.7-1.3,20.4-1.7,24.2-.6,5.1,1.4,13-.4,16-3.6,1.3-1.4,4.6-3.6,7.3-4.8,2.7-1.3,5.1-2.8,5.5-3.3.4-.6,2.1-1.8,3.9-2.8,1.7-.9,4.4-2.3,6-3.1,3.1-1.7,9.7-1,13.2,1.3,4.7,3.1,5.5,44.3,1.1,54.8-2.3,5.6-2.1,6.6,1.7,6.6s4.4.8,5.7,1.7c1.9,1.4,4.4,1.8,10.5,1.7,9.5,0,12.9-1.3,20.9-7.9,3.8-3.1,6.4-4.5,7.7-4.2,1.2.3,1.9,0,1.9-.9s1.3-2,2.9-2.8c1.6-.9,3.1-2.2,3.4-3.1.4-.8,1.5-1.5,2.6-1.5s2.3-.9,2.7-2.4c.8-3.3,10.4-12.3,15.1-14.3,5.8-2.4,29.3-3,35-.8,2.3.9,4.7,1.4,5.2,1,.6-.3,2.7.1,4.7,1,3.9,1.6,8.6,2,9.8.8,1.7-1.8,11.7-3.4,21.2-3.6,8.1-.2,10.6-.6,12.1-1.9,1.1-1,2.9-1.8,4.1-1.8,2.3,0,5.5-3.9,5-6.1-.2-1.1.9-1.3,4.9-1.1,5,.4,5.7.1,11.5-4.3,5.6-4.2,6.3-5.1,6.4-8.4.1-2-.3-4.7-.9-6.1-3.3-8.3-4-29.2-1.5-45.1.7-4.6,1.2-13.5,1-19.7q-.2-11.4,3.7-16.4c7.9-9.9,7.5-21.8-.8-23.3-3.4-.7-3.5-.7-1.6-2.2,1.1-.8,3.8-2.4,6.1-3.4,7.1-3.2,7.5-4.3,8.1-18.3q.6-12.6-2.6-17.7c-1.7-2.8-3.1-5.4-3.1-5.9s1.1-2.5,2.3-4.4c1.6-2.2,2.8-6.3,3.6-11.3.7-4.3,1.7-8.9,2.4-10.2,1-2.1.8-2.6-2.1-5-10-8.1-10.3-8.5-10.8-12.9-.5-6.1-7.3-14.9-13.8-18-4.8-2.3-4.8-2.4-4.2-6.2.5-3.4.2-4.2-3.2-7.7-4.9-5.1-12.3-8.7-15.4-7.7-1.3.4-2.9.7-3.6.5-.8-.1-2,.3-2.7.9-1.8,1.5-3.5.4-3.5-2.3s-1.2-4-2.5-6.2c-1.4-2.2-2.5-5-2.5-6.2,0-3,5.2-5.7,9.6-5,1.9.3,3.6.1,3.9-.4.4-.5,2.2-.9,4.1-.9s5.1-.7,7.2-1.5c6.4-2.7,7.8-1.7,11.9,8.8,1.5,4.1,2.1,4.7,4.1,4.2s2.2-.2,2.2,3.5,2.3,5.7,3.5,2c1.7-5.4,4.8.9,3.2,6.7-1.3,4.9-.4,8.1,1.8,6.3.7-.6,1.5-2.3,1.7-3.7.2-1.5.8-2.8,1.5-3,1.7-.6,2.1,3.8.6,6.9s-.4,4.3,2.8,3.3c2-.7,2.1-.5,1.4,4.4-.8,5.8-.1,6.3,3.2,2.3q2.2-2.7,2.3-.1c0,5.9,1.2,9.1,3.1,8.6,2.8-.7,4.2,1.8,3.6,6.4-.4,3-.2,4.2,1,4.6.8.3,1.9,1.7,2.4,3s1.3,2.2,1.8,1.8c1.1-.6,3.1,5.5,3.1,9.3s2.1,2.5,3.5-.6c2.6-5.7,3.5.5,1,6.5-.9,2.1-1.5,5.5-1.5,7.8.1,2.2-.2,5.2-.6,6.7-.8,3.7,2.2,3.9,3.8.3,1.5-3.4,3.2-2.6,3.6,1.7.3,3-.3,4-4.1,7.5-2.4,2.2-5,4.2-5.7,4.5-1.7.5-.4,2.8,1.6,2.8s3.1-1.6,5.1-3.5c4-3.9,4.8-4.2,5.7-2,.3.8,1.2,1.5,2.1,1.5,2.4,0,1.8,1.4-2.6,6.4-3.3,3.8-3.8,4.7-2.4,5.2.8.4,2.3,0,3.3-.9.9-.8,2.7-1.8,4-2.2q2.3-.7.3,3.4c-1.2,2.2-3,4.5-4.1,5.1-2.3,1.2-2.7,5-.5,5s1.9-.9,2.5-2,1.7-2,2.6-2c2.8,0,2.6,3-.5,7.2-3.9,5.3-2.6,7.6,1.8,3.4q2.9-2.8.5,2c-2.8,5.5-3,7.2-1,8,.8.3,1.2,1.2.9,2.1-.5,1.2,0,1.4,2.5.8,3.7-.8,4,.2,1.2,3.8-3.3,4.2-2.3,6,2.1,3.7,3.6-2,1.3,5.3-2.9,8.7-2.1,1.8-2.4,2.5-1.4,3.5s1.8.7,4.2-1c2.7-2,3-2.1,3-.5s-1.1,3.6-2.5,5.8c-1.3,2.2-3.5,6.1-4.9,8.7s-3.6,5.6-4.8,6.8c-1.8,1.6-1.9,2.2-.9,3.3,1,1,1.8.6,4-2,3.5-4.2,4.2-4.1,3.8,0-.2,2.3-1.6,4.6-4,7.1-5,5-4.8,7.3.4,4.5,1.9-1,2-.9.9,1.1-.7,1.3-2.1,2.5-3.1,2.7-1.3.4-1.8,1.1-1.4,2.2.3,1-.6,2.2-2.5,3.3-1.7.9-3,2.4-3,3.3s-.8,1.5-2.6,1.3c-3.2-.4-4.3,1.8-1.5,2.7,1.2.3,2.1,1.1,2.1,1.6,0,1.9-5.1,7.7-9,10.3-2.2,1.4-4,3.3-4,4.1,0,2,1.9,1.9,4.2-.2,1.7-1.5,8.1-4.2,10.1-4.3.5,0,.7,1.5.5,3.2-.3,3.1-.5,3.3-3.5,3-2.9-.3-3.3-.1-3.3,2.2s-6.7,9.7-11.6,12.4c-2.8,1.5-3.1,3-.8,3.9.9.3,2.8-.6,4.8-2.6,3.4-3.3,6.6-4.1,6.6-1.6s-1.2,1.8-3,2.2c-3.4.6-4,2.8-1,3.6,2.6.7,2.6,3.3-.1,4.8-1.5.8-2.4.8-3.2,0-2.1-2.1-3.5-1.2-3.3,2.1.1,2.8-.4,3.5-3.1,4.7s-4.4,4.1-1.3,4.1,5.5,4.4,4.6,6.5c-.3.9-1.8,1.5-4.1,1.5s-3.5.3-3.5,2.5-.7,2.8-1.5,3.1c-1.1.5-1.4,1.8-1.3,4.8q.3,4.1-3.4,3.8c-4.1-.3-4.6.3-2.4,2.7,2.2,2.6,3,6.1,1.3,6.1s-3.4-1.8-3.9-4.5c-.2-1.1-1.2-2.1-2.2-2.3-2-.4-2-.6.3,8.3,1.3,4.9,1.4,11.5.2,11.5s-2.1-5.8-2.1-10.8-1.7-3.5-2.4,2.8c-.7,6.2-1.1,6.5-5.8,6.1-2-.2-2.6,3.3-.8,4.4,1.3.8,1.3,4.5.1,4.5s-1.1-.4-1.3-1c-.2-.5-1.9-.7-4-.4-2.9.5-3.9,1.2-4.7,3.6-.7,2-.7,3.6-.1,4.8.6,1,1,2.8,1,4,0,3.4-2.5,1.8-2.8-1.8-.2-1.8-.6-3.2-1-3.2s-2.4,1.8-4.5,4c-2,2.2-4.4,4-5.2,4-1.7,0-2,2.5-.5,3.5s1.2,2.5-.6,2.5-1.8-.9-2.1-2c-.5-2-2.3-2.8-2.3-1s-1.2,1.6-2.6,2.3c-1.7.9-2.3,1.7-1.5,2.1,1.7,1.1,1.3,3.6-.5,3.6s-1.8-.9-2.1-2c-.6-2.3-.8-2.4-3.3-1-1.2.7-1.7,1.6-1.3,2.7.5,1.3.2,1.5-1.7,1-1.3-.3-3.5,0-5,.8-2.5,1.3-2.6,1.6-2.3,8.9.4,7.7-1.8,16-3.6,14-1.2-1.2-2-16.3-1-17,1.7-1,.9-3.4-1.1-3.4s-2,.7-2,2-.7,2-2,2c-2.3,0-2.6,1-.8,2.8s.8,1.5.3,1.9c-.4.5-1,.2-1.2-.5-.3-.6-.9-1.2-1.4-1.2-1.6,0-6.8,6.4-6.9,8.3,0,1.1-.6,1.7-1.7,1.5-1.2-.2-1.7.3-1.5,1.4.2,1.2-.4,1.8-1.5,1.8s-2.4.9-3.1,2.1c-.8,1.2-1.9,1.8-3,1.5-.9-.3-3,.1-4.5.9s-3.4,1.2-4.3.8c-.8-.3-2.1.2-2.8,1.2-1.1,1.5-1.6,1.6-3.7.4-1.3-.8-3.7-1.5-5.4-1.5-8.7-.5-16.7-2.5-21-5.4-3.8-2.5-5.2-2.5-11,0-4.1,1.8-4.6,2.3-4.3,4.7.4,3.4,3.2,3.8,3.6.6.2-1.2,1-2.7,1.9-3.4,1.3-1.1,1.7-1,2.9.6s1.2,2.1-.1,3.5c-1.4,1.6-.4,1.8,14.7,2.5,22.1,1.1,31.6,1.2,35.8.2,1.9-.5,6.1-1.3,9.3-1.8s7.1-1.6,8.7-2.4,3.7-1.5,4.6-1.5c2,0,13.5-5.4,17.6-8.2,1.4-1,3.1-1.8,3.7-1.8,2.4,0,18.2-9.7,23.6-14.5,42.1-37.1,67.9-76.2,76-115,.9-4.4,2.1-9.4,2.7-11,.5-1.7,1.1-4.6,1.3-6.5.4-5.8,2.4-17.6,3.4-20.3,3-7.8.7-56.9-3.4-73.9-4.4-18.2-17.3-50.5-23.9-60.3-2.6-3.7-3.9-6.1-8.6-15.5-2.1-4.1-5.5-9.8-7.7-12.5-2.1-2.8-5.2-7.2-6.7-9.9-2.8-4.8-16.7-19.6-18.5-19.6s-1.6-1.5-2.5-3.3c-2.3-4.1-8.2-8.7-11.3-8.7s-3.6.6-5.1,1.4-4.9,1.7-7.6,2.1c-5.5.9-6.6,0-6.6-5.1s-1.8-9.1-6.3-10.8c-2.4-.9-4.6-1.6-5.1-1.6s-3.4,1.8-6.6,4.1c-4.5,3.2-6.4,3.9-8.2,3.3-4.4-1.3-10-6.9-13.6-13.4-4.2-7.7-8.5-13-12.1-14.9-1.4-.7-3.5-2.1-4.6-3.1-4.2-3.6-16-4.9-27-2.9ZM329.5,36.6c2.1,2.2,1.5,4.8-1.3,5.2-2.3.4-2.9,1.6-1.2,2.7,1.5,1,1.2,2.5-.7,3.2-2.2.9-5.2,4.3-5.3,6,0,1.7-1.1,1.6-6.4-.7-4.7-2-5.8-3.6-3.1-4.6.8-.4,1.5-1.6,1.5-2.8,0-2.5,1.7-4.4,7-8,4.2-2.9,7.3-3.2,9.5-1ZM236.9,41.4c2.6,1.4,5.5,3.5,6.3,4.8,1.3,2.1,4.3,17.7,3.5,18.5s-1.8-.4-3.6-1.3c-3.9-1.9-10.4-9.5-11.3-13.2-.4-1.5-1.1-4.4-1.6-6.4-1.5-5.6-.5-6,6.7-2.4ZM288,47.2c.6,2.4,1.4,5.1,1.7,6.2.3,1,.2,4.8-.2,8.4-.6,5.8-1.1,7.1-4.1,9.9-1.9,1.7-3.4,3.6-3.4,4.2,0,2,2.6,1.1,5.5-1.9,1.6-1.7,3.9-3,5.2-3s2.3.2,2.3.4c0,1.2-3.2,7.6-4.1,8.1-.5.4-.8,1.4-.5,2.2s-.1,2.5-1,3.8-1.4,2.5-1.3,2.7c.2.2-.6,1.6-1.6,3.1-1.4,2.2-1.6,3.2-.7,5,3.7,7.4,2.9,13.2-2.4,18.8-1.6,1.7-2.2,2.9-1.5,3.3.6.4,1.8-.2,2.8-1.4,2.5-2.9,3.3-2.5,3.3,1.8s-2.2,8.1-4.7,6.6c-2.4-1.5-5.2-9.6-4.8-13.7.2-1.8.7-6,1.1-9.5.4-3.4,1.1-6.5,1.5-6.8.5-.3.9-1.3.9-2.2s1-2.3,2.1-3c1.5-1,1.8-1.7,1.1-2.4-1.8-1.8-3.7-.2-5.1,4.6-.7,2.5-1.9,4.6-2.6,4.6-1,0-1.1-.8-.4-3.2,2.6-9.3,1.7-26-1.8-33.1-1.3-2.6-1.2-3,2.2-6.9,1.9-2.3,3.5-4.7,3.5-5.3,0-1.8,3-5.5,4.5-5.5s1.9,1.8,2.5,4.2ZM269.4,56.1c3.3,3.9,5.6,12.8,5.8,21.9.1,9.7-.9,18.7-2.4,19.6-1.3.9-4.4-2.2-7.3-7.3-2.4-4.3-2.4-4.9-1.9-18s1.4-18.3,3.2-18.3,1.6,1,2.6,2.1ZM317.1,59.7c.5,1.4.7,3.4.4,4.2-.6,1.4-.8,1.3-2.1-.3-1.6-2.3-1.9-6.6-.4-6.6s1.5,1.2,2.1,2.7ZM323,62.6c0,1.3-4.2,7.4-5.1,7.4-1.3,0-1.2-.4,1.2-4.4,1.9-3.2,3.9-4.7,3.9-3ZM321.1,75.4c-2,3.5-2.8,5.7-2.1,6.1,1.3.8,4-1.2,4-3s1-2,2.1-3.1q2.1-1.9,1.6,2.1c-.2,2.2-1.3,6.1-2.3,8.7-2.1,5.4-1.4,7.2,1.5,3.7,1.1-1.3,2.2-2.1,2.6-1.7.8.8-1.1,4.5-3.7,7.5-2,2.2-1.7,4.3.6,4.3s6.3-5,7.6-8.5c.7-1.7,1.2-5.3,1.1-8-.1-7.5.4-8.3,5.5-9.1,7.2-1.1,7.8.1,7.9,15.4.1,13.7-.5,16.6-3.4,15.7-2.2-.7-3.6,1.9-1.8,3.3.7.6,2.4,1.3,4,1.7,1.5.4,2.7,1.3,2.7,2.1,0,1.8-6.6,1.9-10.8.1q-3-1.2,1.3-7.7c2.4-3.6,4-6.9,3.5-7.4s-1.3-.6-1.8-.2c-1.1.7-8.2,12.4-8.2,13.6s-2.8,1.9-3.9.6c-.9-1-.3-2.3,2.4-5.2,1.9-2.1,3.5-4.6,3.5-5.7,0-2.9-2.3-1.5-4.8,3.1-2.8,4.9-4,5.3-4.8,1.3-.7-3.2-3.9-4.8-6.1-2.9-2.1,1.7-2.8,0-1.4-3.5,1.9-4.6,2.5-9.4,1.2-10.1-.6-.4-1.1-2.2-1.1-4.1s-.4-3.7-1-4c-1.9-1.2-1-4.4,2.5-8.1,1.9-2,3.8-3.4,4.1-3.1s-.8,3-2.5,6.1ZM246.8,92.7c2,1.6,5.4,4.5,7.4,6.5,2.2,2.4,4.6,3.8,6.1,3.8s3.5,1.6,7.6,7.7c5.2,7.9,7.2,13.6,5.3,15.5s-12.8-5.7-15.7-10.1c-1.3-2-3.3-6.9-4.5-10.9-2.2-7.7-3.8-9.2-9.6-9.2s-2.7-.3-1.8-3.8q.8-2.8,5.2.5ZM364.8,98.1c4.7,1.6,5.7,6.4,1.1,5.2-2-.5-2.1-.3-1.7,2.6.4,2.8.1,3.4-1.9,4.2-1.3.5-2.1,1.3-1.8,1.9.9,1.4-8.1,14.5-11.1,16.3-.8.4-1.4,1.7-1.4,2.7,0,4.2-3.6,3.5-6.3-1.2-1.5-2.6-1.6-3.3-.4-4.7.7-.9,4.4-5.2,8.3-9.6,4.6-5.2,7.5-9.5,8.4-12.5,2.1-6.9,1.8-6.7,6.8-4.9ZM248,99c0,.5-.4,1-1,1s-1-.5-1-1,.5-1,1-1,1,.4,1,1ZM277,103.1c0,1.8-.5,2.9-1.4,2.9-1.9,0-2.8-2.8-1.5-5.1,1.4-2.6,2.9-1.5,2.9,2.2ZM323.5,108.4c.7,2,2.1,4.6,3.1,5.7,2.8,3.1.8,3.4-3,.5-5.3-4-7.2-3.5-3.6,1.1,1.1,1.4,2,3.4,2,4.3s.7,2.3,1.5,3c1.2,1,1.3,1.6.5,2.4-.9.8-1.9.2-4.1-2.3-2.7-3.3-2.9-3.4-4.8-1.7s-2,1.7-3-.3c-.6-1.1-1.1-2.7-1.1-3.6,0-2.2,8.9-13.7,10.2-13.3.6.2,1.6,2.1,2.3,4.2ZM309.4,108.4c-.6,1.6-2.4,2.3-2.4.8s2.2-3.3,2.7-2.8.1,1.1-.3,2ZM342.4,117.5c2.3.7,1.2,2-2.5,2.9-3,.7-6.5-2.3-5.6-4.8.5-1.4,1-1.4,3.4-.1,1.5.8,3.7,1.7,4.7,2ZM257,121.5c1.4,1.7,9.7,7.5,10.7,7.5s12.9,5.5,16.6,7.7c2.3,1.4,3.7,3.1,3.7,4.3,0,2.2-1.9,2.7-3.7.9s-3.6-1.3-6.7-1.6c-4.6-.5-5.6-.3-5.6.9s1.5,1.8,5.3,2.3c7.3.9,9.4,2.1,16.5,9.6,6.5,6.9,9,12,6.8,13.8-2.5,2.1-17.4-4.4-19.9-8.6-1.3-2.1-2.7-1.5-2.7,1.2s-.4,2.5-.9,2.5c-1.3,0-4.1-2.9-4.1-4.1s-9.6-10.9-12.7-12.9q-2.3-1.5.7-6.2c3.4-5.4,3.7-7.1,1.4-6.6-1.7.3-4.4,4.9-8.5,14.5-2.3,5.5-3.3,6.3-4.3,3.7-.3-.8-1-1.2-1.6-.9-1.3.8-1.3,17.2,0,18,1.6,1,1.2,7.5-.5,7.5s-3.4-2.8-2.8-5.1c.4-1.3,0-1.9-1-1.9-2.1,0-3.7-5.9-3.7-13.7s2.4-14.3,5.9-19.2c1.1-1.4,3.3-5.4,5.1-8.9,3.3-6.6,4-7.1,6-4.7ZM360.7,124.4c-.4.9-1.1,1.6-1.7,1.6-1.7,0-2.4-3.1-.9-4.1,1.8-1.1,3.4.5,2.6,2.5ZM380,124.4c1.2,2.3,1.2,3,.2,3.3-2.3.9-5,4.4-5.6,7.3-.4,2.4-1.3,3.1-4.8,4.1-2.4.7-5.6,2.3-7.1,3.6-1.6,1.3-3.5,2.3-4.2,2.3-2.3,0-2.5-1.6-.5-3.5,1.1-1,2-2.4,2-3.2,0-1.9,7.5-8.6,10.3-9.4,1.4-.3,2.1-1.2,1.9-2.3-.4-2.3,2.7-5.8,4.7-5.4.8.2,2.2,1.6,3.1,3.2ZM311,124c.7,1.3,2.1,2,3.9,2s3.4.7,4.1,1.5c2,2.5,6.4,1.8,9.8-1.5,3.1-3,9.2-4.3,9.2-2s-4.5,7-6.8,7-2.3.4-1.8,2.4c.9,3.6-3.5,8.6-6.1,7-1-.6-1.9-2.3-2.1-3.7-.2-1.9-1.2-2.9-3.7-3.7-1.9-.6-3.9-.9-4.5-.5-1.3.8-5-5.3-5-8.3s1.6-2.9,3-.2ZM302.1,125.6c1.1,1.4,1.1,1.8-.4,2.9-1.7,1.3-2.3,3.5-.9,3.5s1.4-.6,2.1-1.3c1.8-1.8,4.1,1.7,4.1,6.5s-.4,3.9-2.5,4.4c-2.2.6-2.5,1.1-2.5,5.4,0,8.1-3.3,7.3-4.4-1-1.9-14.7-1.9-17.6,0-19.8,2.2-2.6,2.7-2.7,4.5-.6ZM361.2,129.6c1.7,1.1.6,2.3-2.8,3.4-3,1-3.9,1-5.1-.3-.9-.9-1.3-2.3-.9-3.2.5-1.4,1.4-1.6,4.4-1s4,.9,4.4,1.1ZM338,131.4c0,.7.9,2.5,2,3.9s2,2.8,2,3.1c0,1-4,.7-6.1-.4-2.2-1.2-2.4-3.2-.7-6,1.5-2.3,2.8-2.6,2.8-.6ZM233.4,137.1c-.3.5-1,.7-1.5.3-.5-.3-.7-1-.3-1.5.3-.5,1-.7,1.5-.3.5.3.7,1,.3,1.5ZM317.4,136.5c1.5,1.5,1.8,3,3,12.2s.9,4.8,1.2,5.6c.4,1.1-.2,1.4-2.8,1.2-3.2-.2-3.3-.3-3.6-5.4-.3-4.4,0-5.1,1.5-5.1s1.3-.4-.8-2.3c-2.8-2.4-4.3-5.3-3.3-6.8.8-1.4,3.1-1.1,4.8.6ZM357.8,136.5c.2.2-2.2,3.7-5.3,7.9-4.7,6.5-6,7.6-8.5,7.6-4.4,0-5.9-3.4-3.1-7.1,1.2-1.5,2.1-3.2,2.1-3.8,0-1.2,2.5-2.1,6-2.1s2.9-.6,3.3-2.1c.4-1.6,1-1.9,2.9-1.4,1.3.4,2.4.9,2.6,1ZM228.4,144.7c-.6,4.5-2.9,10.3-3.9,10.3s.7-11.3,1.7-13.3c1.7-3.4,2.9-1.8,2.2,3ZM337.5,142c.4.6.2,1.6-.3,2.3s-1.2,2.4-1.6,3.9c-.8,3.3-2.2,3.6-3.1.8-.3-1.1-1.1-2-1.6-2-1.7,0-2.2,3-1,5.7,1.5,3.2,0,5.3-2.6,3.7-1.9-1.2-4.4-7.7-3.4-9.1.3-.6,2.4-2.2,4.6-3.6,4.2-2.7,7.9-3.4,9-1.7ZM371,143.4c0,1.8-3.8,4.6-6.2,4.6s-2.1-2.8,1-4.4c3.5-1.9,5.2-2,5.2-.2ZM223,147.2c0,2.8-2.1,8.7-3.5,9.8-2.6,2.2-2.9-1.6-.5-6.5,2.1-4.3,4-5.9,4-3.3ZM261,149.6c0,.2-1,2.1-2.3,4.2-2.4,3.9-4.2,7.6-5.1,10.4-.7,2.2-2.5,2.3-3.3.2-.7-2,.8-6.6,4.3-12.9,2.2-3.9,2.8-4.3,4.5-3.5,1,.6,1.9,1.3,1.9,1.6ZM359,148.4c0,2.1-2.7,3.8-4.8,3.2-1.4-.5-2.1-.1-2.5,1.4-.3,1.1-1,2-1.6,2-1.9,0-1.2-2.3,1.6-5.2s7.3-3.8,7.3-1.4ZM365,150.8c0,1.3-1.2,2.2-2.2,1.6s-.1-2.4,1.3-2.4.9.4.9.8ZM237,153.9c0,1-.7,3.7-1.5,6-1.4,4-1.4,4.2,1.3,6.6,2.3,2.2,2.7,3.2,2.5,8.2-.1,5.8-2.7,14.3-4.4,14.3s-1.1-1.7.7-5.2c1.1-2,1.2-3.4.6-4-1.1-1.1-3.8,4.1-4.9,9.2-.2,1.4-1.5,3.3-2.8,4.2q-2.3,1.7-2.7-1.7c-.3-3-.1-3.4,1.4-2.9,1.5.4,1.8,0,1.8-2.5s.5-3.1,1-3.1,1-1.1,1-2.4.7-2.6,2.1-2.9c1.8-.5,1.9-.9.9-2.7-1.7-3.2-1.8-19.3-.1-21.3,1.8-2.2,3.1-2.1,3.1.2ZM267,155.5c1.1,2.1,1.1,2.7-.2,4.2-.8,1-3.1,5.3-5.1,9.5-2,4.3-4.1,7.8-4.7,7.8s-1.7-1.2-2.6-2.6c-1.7-2.5-1.6-2.8,3.2-12,5.1-9.9,7-11.3,9.4-6.9ZM340,155c1.4,1,2.2,2.2,1.8,2.6-.9.8-5.8-2.2-5.8-3.6s1.2-1.2,4,1ZM361.4,155.6c.8,2-.1,3.4-2,3.4s-1.4-1-1.4-2.5c0-2.8,2.4-3.4,3.4-.9ZM425,154.4c0,.3-.4.8-1,1.1-.5.3-1,.1-1-.4s.5-1.1,1-1.1,1,.2,1,.4ZM341.4,162.9c1.1,1.2,2.5,2.1,3.3,2.1,2.1,0,1.5,3.4-.9,4.9-1.9,1.2-2.3,1.1-3.3-.3-1.8-2.3-2.2-2-3,2-.9,5.2-2.2,3-2.8-4.8-.6-8.4,1.5-9.7,6.7-3.9ZM370.6,160.4c.3.8-.5,2.5-1.8,3.8-1.3,1.4-5,7-8.3,12.6s-6.6,10.1-7.2,10.2c-2.6,0-1.4-8.2,1.7-12.5,1.6-2.2,4.2-6.1,5.7-8.7,2.4-4.1,5.3-6.4,8.6-6.7.4-.1,1,.5,1.3,1.3ZM273,164.7c0,1.3-1.8,5.4-4,9-2.2,3.7-4,7-4,7.5s-.7.8-1.5.8c-2.4,0-3-2.9-1.1-6,.9-1.6,1.6-3.3,1.6-3.9s1.4-3.6,3.1-6.6c2.5-4.5,3.4-5.3,4.5-4.4.8.6,1.4,2.2,1.4,3.6ZM321.4,163.2c1,5.1.7,9.7-1,17-1.4,6-1.6,15.8-.3,19.7.2.7-.1,1.5-.8,1.8-.6.2-1.4-1-1.8-2.7s-1.3-4.3-2.1-5.8-1.4-4.5-1.3-6.7c0-4.2,2-12.9,3.2-14.1s.7-2.6.7-5c0-7.4,2.2-10.1,3.4-4.2ZM331.4,163.9c.6,3.9,0,7.1-1.3,7.1s-3.1-7.2-3.1-9.5.8-1.5,1.9-1.5,2,1,2.5,3.9ZM359,162.1c0,1.5-3.3,6.9-4.2,6.9s-1.7,1.8-2.8,4-2.8,4-3.7,4c-1.5,0-1.5-.1,0-1.8,2.1-2.3,2.1-3.2.2-3.2s-1.5-.6-1.5-1.3c.1-4,12-12.6,12-8.6ZM378,164.5c0,.8-.4,1.5-1,1.5s-1,.9-1,1.9c0,3-1.1,5.1-2.6,5.1s-1.2.8-.8,2.9c.3,1.6,0,3.9-.6,5.2q-1.3,2.3-3,.1c-2.6-3.2-4-2.7-4,1.4s-.3,3.5-1.7,3.2c-3.3-.6-2.5-3.7,3.1-12.2,3.1-4.7,5.6-9,5.6-9.6s1.4-1,3-1,3,.5,3,1.5ZM306.2,176c3.5,0,5,6,3.9,15.2-.4,3.2-9.8-2.4-12.8-7.6-3.6-6.2-3.7-6.5-1.9-8.5,1.5-1.7,2-1.7,5.4-.5,2,.7,4.5,1.3,5.4,1.4ZM333,177.8c0,.9.4,2.3.9,3.1.8,1.2,1.5.9,4.1-1.2,4.4-3.8,5.3-3.5,4.5,1.5-1.9,12.1-4.4,16.8-8.9,16.8s-2-1.4.9-4.8c1.4-1.7,2.1-3.3,1.6-3.6s-1.1.1-1.5.9c-.7,1.9-3,1.9-5,0-1.3-1.4-1.3-2.1-.1-6.3.8-2.6,1.5-5.7,1.5-7s.4-2,1-1.7,1,1.4,1,2.3ZM253,177.4c0,.3-.4.8-1,1.1-.5.3-1,.1-1-.4s.5-1.1,1-1.1,1,.2,1,.4ZM350,189.7c0,.8-1.3,1.3-3.5,1.3-4.1,0-4.3-.5-1.3-3.7,2.1-2.3,2.3-2.3,3.5-.7.7,1,1.3,2.4,1.3,3.1ZM360.3,189.1c.3,1.3,0,2.2-.9,2.6-2,.7-3.8-1.1-3.1-3.1.9-2.3,3.4-2,4,.5ZM368,188.5c0,.8-.7,1.5-1.5,1.5-1.6,0-2-1.2-.8-2.3,1.1-1.2,2.3-.8,2.3.8ZM430,191.9c-.5,1.1-1.5,2.3-2,2.6-1.4.9-1.2-1.9.2-3.3s3-1.4,1.8.7ZM262,195.7c0,2.9-3,10.2-4.3,10.3-.7,0-.5-1.6,1.4-9.3,1.1-4.3,2.9-5,2.9-1ZM337.1,204.8c-1,2.1-2.5,5-3.2,6.7-.8,1.6-2.2,3.1-3.2,3.3-2.2.4-7.7-1.9-7.7-3.3s5.8-10.5,6.8-10.6c.4,0,1.7-.2,2.9-.3,1.3-.2,2.6-.6,3-.9.3-.4,1.2-.2,1.9.4,1.1.9,1,1.8-.5,4.7ZM352.8,203.1c.4,2.3-2.5,4.9-5.4,4.9s-2.4-.5-2.4-2.3.6-2.9,1.2-3.5c1.7-1.7,6.2-1.1,6.6.9ZM311.7,206c.3,1.2,1.3,1.9,2.5,1.7,5.1-.5,4.3,8-1,10.6-1.9.9-2.6,2-2.7,4,0,2.3-.7,3.2-3.2,4.2-2.9,1.2-3.3,1.2-3.3-.1s.9-2.8,2-4.4c1.1-1.7,2.9-4.4,4-6,1.9-2.8,2-5,.1-5s-6.1,7.7-6.1,9-.6,1.5-1.2,2.2c-1.9,2-4.8,7.7-4.8,9.3s-6.7,8.8-8,8c-1.6-1-.3-6.4,2.4-10,3-4.1,12.6-19.9,12.6-20.8,0-1.3,3.4-4.7,4.8-4.7s1.6.9,1.9,2ZM360.5,206.1c.9,1.4.4,1.8-3.6,2.5q-3.4.7-1.5-1.4c2.1-2.4,4.1-2.8,5.1-1.1ZM347,212c0,.5-.5,1-1.1,1s-.7-.5-.4-1c.3-.6.8-1,1.1-1s.4.4.4,1ZM357.7,212.7c.2.6-.5,2.1-1.6,3.2s-2.7,3.4-3.6,5c-2.3,4.6-7.5,6.3-7.5,2.6s5.7-10.2,7.8-11.5c2.1-1.2,4.4-.9,4.9.7ZM360.1,217.3c-1.6,1.6-2.6,0-1-1.9.9-1.1,1.5-1.2,1.7-.4.2.6-.1,1.7-.7,2.3ZM345,217.2c0,.4-1.1,1.5-2.5,2.4s-2.5,2.5-2.5,3.5c0,3.3-7.5,5.5-8.6,2.5-.3-.8.5-3.1,1.9-5.3,2.2-3.5,2.8-3.8,7.1-3.8s4.6.3,4.6.7ZM280,223.4c0,.8-.6,1.6-1.3,1.9-1.4.5-4,10.3-3.1,11.8.8,1.3,2.4.1,2.4-1.9,0-3,1.7-4.9,3.1-3.5s.4,3-2.4,9.2q-4.2,9.1-2.4,9.1c.8,0,1.9-1.1,2.5-2.5,1.2-2.7,3.9-3.3,4.8-1.2.3.8-1.3,4.9-3.6,9.2-2.2,4.4-4,8.3-4,8.8s-2.5,5.2-5.5,10.4c-5.9,10.3-6.3,11.3-4.1,11.3s9.6-13.9,13.8-23c4.5-9.5,5.8-12.7,5.8-14,0-2,4.1-6,6.2-6,3,0,3.1-.4-8.5,24-2.5,5.2-6.2,11.3-8.1,13.5-3.9,4.4-4.2,5-2.4,6.1,2.5,1.6,15.8-19.8,15.8-25.5s1.4-2.9,3-4.4c1.7-1.6,3-3.3,3-3.8s.5-.9,1-.9c2.9,0-.8,9.5-4,10.3-1.3.3-1.8,1-1.4,2.1.3.9-.1,3.3-1.1,5.4-3.2,7.1-6.7,13.6-8.8,16.4-1.6,2.2-1.8,3.1-.9,4,1.6,1.6,2.4.7,7.3-8.7,4.2-8.2,6.3-10.5,8.1-8.7s.1,2.5-1.8,5.7c-3.3,5.3-8.2,14.7-8.3,15.7-.1.4.9.8,2.2,1,2.4.3,2.7,2.3,1.2,8.7-.8,3.2-.7,3.3,1.6,2.6,1.3-.4,3.5-1.6,4.9-2.7,3.2-2.6,4-.5,1.1,3.1-1.2,1.4-4.4,7.2-7.1,12.8-4.4,8.9-5.4,10.3-7.5,10.3s-2.5-.6-2.5-1.4c0-1.3,5.4-12,7.2-14.3,1.1-1.4.4-4.3-1-4.3s-2.8,3.9-5.2,8.7c-5.8,11.8-6.3,12.3-12.1,12.3s-5-.4-5.3-.9c-.3-.4.5-3,1.8-5.7,10.4-21.5,10.5-21.8,8.6-22.9-.6-.4-2,1.3-3.1,3.7s-2.4,5-2.9,5.8c-1.5,2.3-6,12.6-6,13.6-.1,1.9-5.7,7.3-8.2,8-4.2.9-3.6-1.7,2.1-10.1,2.7-4,6.8-10.8,9.1-15.1s4.7-8.5,5.2-9.1c.6-.7.7-2,.4-2.9-1-2.6-2.7-.4-8.1,9.8-2.6,5.1-6.5,11.6-8.6,14.4s-4.7,7.2-5.9,9.7c-1.7,3.6-3,4.9-5.7,5.8-1.9.6-3.7.9-4,.6-.2-.3,1.4-3.8,3.8-7.7,2.7-4.7,3.9-7.4,3.2-8.1-1.3-1.3-2.6.4-8.7,11.4-3.6,6.4-6.1,9.7-8.4,11-1.8,1.1-3.5,1.7-3.8,1.4-.5-.4,9.5-18.6,11.8-21.4.5-.7.7-1.7.3-2.3-1.2-2-3.3-1-4.6,2.2-.7,1.8-2.4,5.1-3.8,7.3-3.8,6.1-5.6,9.6-7.1,14.3-.9,2.8-2.7,5.4-5.6,7.7-7.8,6.4-8.6,3.8-1.9-5.9,2.5-3.7,4.5-6.9,4.5-7.2s2.1-4.1,4.6-8.5c2.8-4.9,4.4-8.6,4-9.6-1-2.5-2.6-.4-8.2,10.2-2.6,4.9-5.8,10.3-7,11.8-2.2,2.6-5.4,11.2-5.4,14.4s-13,10.3-15.6,10.3-3.2-.8-4.3-1.8c-2-1.6-2.1-2.1-1.2-6.2,1.3-5.6,1.4-26.4.1-39.3q-1-9.9,2.2-13.8c2.9-3.6,8-6.7,13.7-8.4,2.2-.7,2.3-.5,1.7,1.9-.5,1.9-.3,2.6.9,2.6s1.5-.6,1.5-1.3.9-2.2,2-3.2c1.8-1.6,2-1.6,2-.2s-1.1,3.3-2.5,5.3c-2.9,4.2-3.2,6.7-.9,6.2.8-.2,2.9-3.5,4.6-7.6s3.6-7.2,4.4-7.2c2.1,0,1.7,1.9-2.1,9-3.7,6.8-4.3,9-2.2,9,.6-.1,2.8-3.5,4.7-7.6,1.9-4.2,3.7-6.8,3.8-5.9.2.9-.3,2.4-1.1,3.3s-2,4.1-2.7,6.9c-.6,2.9-2.5,7.1-4.2,9.4-2.8,3.8-3.2,6.9-.8,6.9s6.2-9.9,9.5-19.5c3.1-9.1,5.8-14.1,8.6-15.5,2.6-1.5,2.4-.7-1.8,7.6-3.5,6.8-4,9.5-1.3,7.9,1.8-1.1,7.1-13.9,6.7-16-.2-1.3.5-2.7,2-3.8,3.7-2.8,3.8,0,.3,7.7-1.6,3.7-3,7.4-3,8.2,0,2.4,2,1.5,3.1-1.4.6-1.5,1.7-3.8,2.4-5.2s1.8-4.3,2.4-6.5c1.6-5.3,12.3-27.5,13.3-27.5s1,1.8-.5,5.3c-.8,1.8-2,5-2.7,7.2s-3.1,7.7-5.3,12.3c-3.8,7.8-4.3,10.8-1.4,8.4.7-.6,2.8-4.4,4.6-8.4s3.8-8.2,4.4-9.3,1.4-3.6,1.8-5.5c1-4.8,3.7-11.7,9.3-23.1,2.5-5.3,4.6-10.7,4.7-12,0-1.3.6-4.2,1.2-6.3,1.1-3.5,1.8-4.1,6.2-5.7,6.3-2.2,6.5-2.2,6.5-.5ZM317.7,227.7c.7,1.7-2.9,5.3-5.3,5.3s-1.8-2.9.3-5.2c2-2.2,4.2-2.3,5-.1ZM434,229.7c0,1-.5,2.5-1,3.3-.9,1.3-1.1,1.3-1.9,0-.7-1-.5-2,.6-3.2,2-2.2,2.3-2.2,2.3-.1ZM307.5,230c.7,1.1-3.4,7-4.9,7s-1.8-.8-2.8-1.7c-1.8-1.6-1.8-1.8,1.9-4,4.3-2.6,4.9-2.7,5.8-1.3ZM261.6,237.2c-5.2,11.2-7.6,17.1-7.7,19.2-.1,1.3-.4.9-.9-1.3s-.3-4.2.6-6,2.1-5.3,3.1-8.6c1.7-5.8,6.2-12.2,7-9.8s-.7,3.6-2.1,6.5ZM362.7,235.7c.2.6-.4,1.4-1.4,1.7-1.5.5-1.8,1.4-1.5,4.3.2,2.3-.8,6.8-2.3,11.3-1.5,4.1-3.7,10.6-5,14.5-1.3,3.8-3.3,8.8-4.4,11-1.2,2.1-2.1,4.6-2.1,5.5s-.7,2.5-1.5,3.6c-.8,1-1.5,3.2-1.5,4.7s-.5,3.8-1.1,4.9c-3.1,5.9-5.6,24.5-3.8,28,1.5,2.7-.5,5.3-5.1,6.8-5.9,1.9-7.1.5-4.6-5.8,1-2.6,1.9-5.8,2.1-7.2,1.4-10.4,2.6-17.2,3.6-19.6.6-1.6,1.9-6,2.9-9.7,1-3.8,2.5-7.6,3.4-8.6s1.6-3,1.6-4.4c0-2.5,1.6-7.7,4.5-14.2,3.8-8.6,4.6-10.7,5.6-15.6,2.2-10.8,2.4-11.3,4.9-12,3.3-.9,5.2-.7,5.7.8ZM247.6,240.1c-.4,2.2-1.6,5.9-2.7,8.1-1.4,2.7-1.7,4.3-1,5.2.7.8-.3,3.9-3.5,10.4-2.4,5.1-4.4,9.8-4.4,10.6,0,1.8-2.7,3.9-4,3.1-1.5-.9-1.3-1.8,1.6-8.2,4.7-10.6,5.2-11.8,7.7-18.3,1.4-3.6,2.9-7.9,3.2-9.5,1.1-4.8,1.4-5.5,2.6-5.5s1,1.3.5,4.1ZM255,237.8c0,1-.4,2.2-.9,2.7-.5.6-1.3,2.5-1.8,4.4-1.2,4.5-3.3,5.3-3.3,1.2s.4-3.9.9-4.9c.5-.9,1.2-2.5,1.5-3.5.7-2.3,3.6-2.2,3.6.1ZM313,236.6c0,1.1-2.3,4.9-3.4,5.6-1.8,1.2-5.6.9-5.6-.4,0-2.1,4.3-5.8,6.7-5.8s2.3.3,2.3.6ZM347.8,238.2c2.2,1.8,1.4,5.3-1.6,7-2.7,1.6-3,1.6-6-.5-3.2-2.2-4.1-3.7-2.2-3.7s1-.7,1-1.5c0-3.2,5.4-4,8.8-1.3ZM433.1,243.4c-.6,1.4-1.5,2.6-2.1,2.6-1.4,0-1.3-.7.6-3.6,2.1-3.1,2.8-2.6,1.5,1ZM317,250.1c0,1.3-3.4,1.1-4.8-.3s-1.5-4.5.5-5.7c1.4-.7,2-.4,3,2.1.7,1.7,1.3,3.4,1.3,3.9ZM249.4,256.7c-.8,4-2.5,7.1-4,7.7s-1.7-1.8.6-6.4c2.4-4.6,4.3-5.3,3.4-1.3ZM431,256.5c0,.8-.7,1.5-1.5,1.5-1.6,0-2-1.2-.8-2.3,1.1-1.2,2.3-.8,2.3.8ZM303.7,258.7c.4,1.1-.7,2.8-3.5,5.5-6.6,6.1-8,5.1-3.2-2.5,3-4.8,5.6-6,6.7-3ZM344,259.8c0,.5-1.3,3.6-3,7-1.6,3.4-3,7.3-3,8.6s-.8,3.9-1.7,5.8c-.9,1.8-2.1,4.2-2.6,5.3-.6,1.1-1.4,3.3-1.8,5-.4,1.8-.7-2.8-.7-11,.1-7.7.4-14.9.8-15.9.9-2.6,12-7,12-4.8ZM426.6,262.6c-.5,1.3-1,1.4-1.8.6s-.8-1.8-.4-2.8c.5-1.3,1-1.4,1.8-.6s.8,1.8.4,2.8ZM314,266.5c-.7.8-1.6,1.5-2.1,1.5-1.3,0-1.1-2.4.3-3.8s3.5.3,1.8,2.3ZM305.4,266.7c-.6,2.7-4.2,6.8-5.1,5.9s3.7-8.6,4.7-8.6.8,1.2.4,2.7ZM422,267.5c0,.8-.7,1.5-1.5,1.5-1.6,0-2-1.2-.8-2.3,1.1-1.2,2.3-.8,2.3.8ZM428,272.9c1.2,2.9.7,5.1-1,5.1s-4.1-6-3.4-7.1c1.1-1.8,3.2-.8,4.4,2ZM363,274.3c0,1.8-.7,5.9-1.5,9.1-2.6,9.9-3.6,31.8-1.6,35.5,1.1,2,1,2.1-3.8,2.1s-4.9,0-5.5-4.8c-.7-4.9,2.9-24.6,5.2-28.9.7-1.2,1.2-3,1.2-4,0-2.4,4.2-12.3,5.2-12.3s.8,1.5.8,3.3ZM308,275.9c0,2-2.7,4.8-3.7,3.7-.8-.7,1.7-5.6,2.9-5.6s.8.8.8,1.9ZM422,276.9c0,.5-.6,1.4-1.4,2-1.6,1.3-3.2-.2-2.1-1.9.8-1.2,3.5-1.3,3.5-.1ZM301.8,279.2c-.9,1.3-3,4.7-4.8,7.6-3,4.9-6.5,8-7.7,6.8-1.3-1.2,2.4-7.3,7.2-11.8,5.4-5.1,7.7-6.2,5.3-2.6ZM424.5,281.9c.3.5.1,1.2-.5,1.6-.5.3-1-.1-1-.9,0-1.8.6-2.1,1.5-.7ZM316.8,283.2c-.6,1.6-3.6,3.4-4.4,2.5-.9-.9,1.5-3.7,3.3-3.7s1.3.5,1.1,1.2ZM307,284.7c0,2.7-9.8,13.9-13.2,15.2-2.3.8.8-4.8,5.6-10,4.6-5.1,7.6-7.1,7.6-5.2ZM421,288.9c0,2.9-2.4,4.5-4,2.6-1-1.2-1-1.8,0-3,1.7-2.1,4-1.9,4,.4ZM166,290.2c-.1,1.3-.7,3.4-1.5,4.8s-1.4,3.5-1.5,4.7c0,2.9-1.6,3-2.3.3-.4-1.8.3-6.1,1.8-10.8.8-2.2,3.5-1.4,3.5,1ZM171.8,292.8c.4,2.5-2.3,4.1-4,2.4s-.6-1.7.2-3.2c1.4-2.6,3.4-2.2,3.8.8ZM312.7,293.7c.2.6-.6,1.3-1.8,1.5-2.1.3-4.5,3.3-6.8,8.3-.5,1.1-1.9,2.9-3.2,4q-2.2,2-.1-2c1.1-2.2,3-6.2,4.1-8.8,1.8-4.3,2.4-4.8,4.7-4.5,1.5.2,2.9.8,3.1,1.5ZM414,295.6c0,3.3-3.3,3-3.8-.4-.3-1.7.2-2.2,1.7-2.2s2.1.6,2.1,2.6ZM422.6,297.8c-.4.3-1.1.1-1.8-.6s-.8-1.5.3-2.8c1.3-1.6,1.4-1.6,1.7.5.2,1.3.1,2.5-.2,2.9ZM419.8,304.8c.2.7-.3,1.2-1.2,1.2s-1.6-.7-1.6-1.6c0-1.7,2.2-1.4,2.8.4ZM411.8,305.7c-.4,2.2-2.2,2-2.6-.1-.2-1,.3-1.6,1.3-1.6s1.5.7,1.3,1.7ZM309.1,307.6c1.7,1.6,1.7,1.8-1.1,5.9-1.6,2.4-4.3,5.4-6,6.8-3.4,2.9-4,7.1-1.3,8.2,2.2.8,5.2-2.6,6-6.7.6-2.8,3.4-5.3,4.7-4.1,1,1.1.7,2.3-.8,2.3s-1.3,1.5-1.3,5.5c0,6.8-1.3,8.5-6.8,8.5s-6.7-1.6-5.8-4.8c.7-2.7-1.3-3-2.2-.3-.7,2.2-2.9,3.3-5.1,2.4-2.2-.8-.9-6.1,2.4-9.6,3.5-3.7,4.5-3.4,2.5.8-.9,1.9-1.3,3.8-.9,4.2.7.8,4.5-3.4,4.6-5.1,0-1.3,8-15.6,8.7-15.6s1.4.7,2.4,1.6ZM410,316.6c0,.8-.7,1.4-1.5,1.4-1.5,0-2.1-2.1-.9-3.3,1-.9,2.4.2,2.4,1.9ZM404,318.5c1,1.2,1,1.8,0,3-1.7,2-3.7,1.9-4.9-.3-1.8-3.4,2.4-5.7,4.9-2.7ZM412.1,322.3c-1.3,1.3-2.6.3-1.6-1.2.3-.6,1.1-.8,1.7-.5.6.4.6,1-.1,1.7ZM407,327c0,3.1-1.6,4.1-2.6,1.5-.8-1.9.2-4.5,1.6-4.5s1,1.3,1,3ZM402,330.9c0,1.2-2.9,3.5-3.6,2.8-1.1-1,.5-3.7,2.1-3.7s1.5.4,1.5.9ZM395,337.5c0,1.6-2.7,3.2-3.7,2.2-.3-.4-.3-1.3,0-2.2.8-2,3.7-2,3.7,0ZM405,337.8c0,1.1-.9,2.7-2,3.7-1.8,1.7-1.9,1.6-2.5-.8s0-4.7,2.6-4.7,1.9.7,1.9,1.8ZM399,346.9c0,1.1-.5,2.3-1.1,2.7-1.5.9-3.3-1.2-2.6-3,.9-2.3,3.7-2,3.7.3ZM390,348c0,.5-.7,1-1.6,1s-1.2-.5-.9-1c.3-.6,1-1,1.6-1s.9.4.9,1ZM393,352.1c0,1.7-2,4.9-3.1,4.9-1.6,0-2.2-2.9-.9-4.5,1.4-1.7,4-2,4-.4ZM384.4,358.8c-.7,3.7-2.4,4.3-2.4.9s1.9-5.1,2.7-4.3c.2.1,0,1.7-.3,3.4ZM373,375c0,.5-.7,1-1.5,1s-1.5-.5-1.5-1,.7-1,1.5-1,1.5.4,1.5,1ZM350,391.5c0,.8-.4,1.5-1,1.5s-1-.7-1-1.5.5-1.5,1-1.5,1,.7,1,1.5ZM347.8,400.6c-2.4,2.4-4.4.7-2.2-1.7,1.2-1.3,2.1-1.6,2.8-.9s.5,1.5-.6,2.6ZM325.7,402.6c.3.8.1,2-.6,2.7-1.4,1.4-4.7-1.5-3.7-3.2,1-1.6,3.6-1.3,4.3.5ZM333.7,402.6c.6,1.6-1.2,3.4-3.4,3.4s-1.3-.9-1.3-1.9c0-1.8,1.2-2.8,3.3-3,.4-.1,1,.6,1.4,1.5ZM341,402.4c0,1.8-1.7,2.9-3,2.1-.8-.5-.7-1.1.1-2.1,1.5-1.8,2.9-1.8,2.9,0Z"/>
  <path class="st0" d="M252.2,134.3c-2.7,3.2-7,12.7-6,13.3s1.3.2,1.8-.2c1.4-1.5,7-12.1,7-13.3s-1.5-1.4-2.8.2Z"/>
  <path class="st0" d="M267.1,142.9c-1.2.8-1.2,1.4.3,4.5,1.9,4,3.4,5.2,4.7,3.9s-2.4-9.4-3.4-9.3c-.1,0-.8.4-1.6.9Z"/>
  <path class="st0" d="M368.1,134.4c-.9,1-.9,1.6-.1,2.1,1.7,1,3.7-1.2,2.4-2.5s-1.5-.6-2.3.4Z"/>
  <path class="st0" d="M269.4,237.7c-.4,2.1-1.8,6.7-3.1,10.3-3.2,8.5-8.3,21.1-9.2,23-1.2,2.4-5.7,10.5-7.2,12.8-.7,1.2-1,2.4-.7,2.8,1.3,1.3,3.7-.5,4.4-3.3.4-1.5,1.2-3.5,1.9-4.3,2.2-2.7,7-12.8,11-23,1-2.5,2.4-5.9,3.1-7.7.8-1.7,1.4-4,1.4-5.1s.5-2.4,1-2.7c.6-.3,1-1.9,1-3.6,0-4.4-2.8-3.8-3.6.8Z"/>
  <path class="st0" d="M272,255.8c0,1-.4,2.2-.9,2.7s-3.1,5-5.6,10c-2.6,4.9-5.4,9.8-6.2,10.7-1.5,1.6-1.1,3.8.7,3.8s2.1-2.1,3.6-4.8c1.4-2.6,4.1-7.4,5.9-10.7,1.9-3.3,3.5-6.8,3.5-7.8s.5-1.7,1-1.7,1-.9,1-2-.7-2-1.5-2-1.5.8-1.5,1.8Z"/>
  <path class="st0" d="M245.5,292.5c-3.4,5.1-4.4,6.8-6.6,11.5-1.2,2.5-3.1,5.8-4.1,7.3-1.6,2.2-1.8,3.1-.9,4,1.6,1.6,3.9-1.4,9.6-13.2,4.7-9.6,5.9-15.5,2-9.6Z"/>
  <path class="st0" d="M275,294.4c0,.9.7,1.6,1.6,1.6,1.7,0,1.4-2.2-.4-2.8-.7-.2-1.2.3-1.2,1.2Z"/>
  <path class="st0" d="M250,296.5c-1.3,1.6-.6,3.5,1.5,3.5s2.8-2.7,1.9-4.1c-.8-1.3-2-1.1-3.4.6Z"/>
  <path class="st0" d="M282.5,298.8c-2,1.4-5.4,7-10,16.6-3.5,7.2-4.5,10-3.6,10.9,1.4,1.4.8,2.1,7-10.5,2.9-5.9,6.2-11.4,7.2-12.4,2-1.8,2.5-3.9,1.1-4.8-.4-.2-1.2-.2-1.7.2Z"/>
  <path class="st0" d="M255,301.6c-.9,1-1,1.8-.2,2.6,1.2,1.2,3.2.2,3.2-1.7s-1.6-2.6-3-.9Z"/>
  <path class="st0" d="M228,311.2c-2.3,3.9-2.5,5.8-.6,5.8s4.6-5.6,4.6-7.9-2.1-1-4,2.1Z"/>
  <path class="st0" d="M216.1,319.1c-1.1,1.8-1.7,3.7-1.4,4.2.6,1.1,5.3-3.2,5.3-4.9,0-2.7-2.1-2.3-3.9.7Z"/>
  <path class="st0" d="M208.6,332.7c-.8,1.9.8,3.8,2.3,2.9,1.6-1,1.3-4.6-.3-4.6s-1.7.8-2,1.7Z"/>
  <path class="st0" d="M212.6,69.2c-.3.7-.6,3.1-.9,5.3-.4,3.1-1.6,5.1-5.3,9-2.7,2.8-4.9,4.4-5.2,3.7-.6-2-3.2-1.4-3.2.8s.7,2,1.9,2,2.1.9,2.5,2.5c.4,1.7,1.3,2.5,2.7,2.5s2-.4,1.5-3.5c-.6-3.1-.3-4,2.4-6.7s3.4-2.8,4.3-1.9,2,1.1,3.1,1.1,3,1,4.3,2.2c3.2,3,4.9,1.2,2.8-2.8-1.9-3.7-1.9-4.2.5-8.6,1.2-2.4,1.6-3.9.9-4.3-1.5-1-3.7,1.3-4.4,4.6-1.1,4.9-2.9,4.8-2.2-.2.6-3.8.5-4.2-.7-2.7-1.9,2.6-2.6,2.2-2.6-1.2s-1.7-4.2-2.4-1.8Z"/>
  <path class="st0" d="M172.3,71.3c-.6.6-1.3,3.9-1.6,7.3-.6,5.5-.4,6.3,1.6,8.3,1.3,1.1,2.6,2.1,3,2.1,1.2,0,.8-3.8-.4-4.6-.8-.4-1-2.9-.6-7,.5-6.4-.2-8.5-2-6.1Z"/>
  <path class="st0" d="M177.5,79.9c-.7,1.2,3.3,9.1,4.6,9.1,2,0,1.9-2.9-.1-6.4-2.2-3.6-3.4-4.4-4.5-2.7Z"/>
  <path class="st0" d="M298.2,84.6c.4,2.1,2.2,2.3,2.6.1.2-1-.3-1.7-1.3-1.7s-1.5.6-1.3,1.6Z"/>
  <path class="st0" d="M198.5,94c-.7,1.2.2,3,1.6,3s.9-.9.9-2c0-2.1-1.5-2.7-2.5-1Z"/>
  <path class="st0" d="M157,100.8c0,1.7,3.2,7.2,4.1,7.2,1.8,0,2-2.9.4-5.4s-4.5-3.6-4.5-1.8Z"/>
  <path class="st0" d="M195.3,101.5c-.6,1.7.1,9.6,1.2,13.2.4,1.3.3,2.3-.3,2.3s-1.3-1-1.7-2.3c-.7-2.1-.8-2-1.5.8-.6,2.8-.2,8.4.7,9.5.2.2,2-1.3,3.9-3.5,2.1-2.4,3.3-3.2,2.9-2-1.9,5.5-2.1,5.3,4.3,4.8,5.2-.4,6.3-.2,8.2,1.7s2.8,1.9,3.6,1.6c2.3-.9,1.6-3.6-1.1-4.6-2.4-.9-3.6-4-1.5-4s4.2-5.9,3.6-7.6c-.9-2.3-3.2-1.6-4.5,1.2q-1.2,2.7-4.1-.1c-1.5-1.5-3.1-3.8-3.5-5.2-.9-3.7-3-2.2-2.9,2.1.2,4.4-1,4.6-3.1.6-1.1-2-1.4-4.2-.9-6.5.5-2.8.3-3.5-1-3.5s-1.9.7-2.3,1.5ZM206,118.9c-.6,1.2-1.5,2.1-2.1,2.1s-.2-1.1.7-2.5c2-3,3.1-2.6,1.4.4Z"/>
  <path class="st0" d="M173,102.7c0,2.9-1.1,3.5-3.2,1.6-1.7-1.5-1.8-1.5-1.8.5s-.6,2.2-2.1,2.2-1.9.5-1.7,1.6c.4,2.4,4.7,5.1,9.2,5.9q3.9.6,3.2-4.2c-.4-2.6-.8-5.7-.9-6.7-.3-2.6-2.7-3.3-2.7-.9Z"/>
  <path class="st0" d="M234.4,102.1c-.8,1.4,1.1,3.3,2.5,2.5.6-.4,1.1-1.4,1.1-2.2,0-1.6-2.6-1.9-3.6-.3Z"/>
  <path class="st0" d="M187.2,116.2c.3,3.5,2.2,4.8,3.2,2.2.9-2.4-.2-5.4-2-5.4s-1.4.9-1.2,3.2Z"/>
  <path class="st0" d="M243.9,117.2c-1.2,2.4-3,5.5-4,7-2.3,3.2-2.4,3.8-.1,3.8s8.2-10,8.2-13.1-1.8-2.1-4.1,2.3Z"/>
  <path class="st0" d="M220.4,132.1c-1,1.7,1.3,3.6,2.7,2.2s.4-3.3-1.1-3.3-1.2.5-1.6,1.1Z"/>
  <path class="st0" d="M164,143c-.8.5-2.6,1-3.9,1s-4.5,1.4-7.2,3.2c-3.8,2.5-5.8,4.8-8.9,10.5-3.2,6-3.8,7.8-3,9.4.9,1.5.2,3.2-3.4,8.7-2.4,3.7-5.1,7.4-6,8.1s-1.6,1.9-1.6,2.6-1.7,2.5-3.8,4.2c-4.9,4-8.1,9.8-6.4,11.5s1.6,1,2.6-.4c1-1.3,1.5-1.5,2.4-.6s1.5.9,2.4,0,.8-1.4-1-1.8c-2.3-.7-3-2.8-1.2-3.9,2.2-1.4,5,.6,5,3.6s.5,2.9,1,2.9,1-.3,1.1-.8c0-.4.2-1.7.3-3,.2-1.2.8-2.8,1.5-3.5,2.1-2.1,3.2,1.2,1.5,5.1q-1.7,4.2.1,4.2c.8,0,1.5-.5,1.5-1s.5-1,1.1-1,.9.9.6,2.2-.9,3.6-1.2,5.3q-.6,3,1.9,0t2.6,2.1c0,4.2-.4,5.4-2.2,6.6-2.7,1.8-1.8,4.8,1.5,4.8s3.2.6,4.2,1.4c1,.7,2.6,1.1,3.5.9.9-.3,3.1,1.2,5.3,3.7,3,3.4,4,4,5.2,3s.9-1.8-1.9-5.5c-2.4-3-3.7-6.2-4.5-10.5-.6-3.5-2-8.2-3.2-10.6-2-4.3-2-7.4.1-7.4s1,.9,1,2c0,2.2,1,2.6,2.7.9s2.4-1.1,4.2-1.1c2.4-.1,2.8-.4,2-1.4-.7-.9-.3-2.9,1.6-7.3,1.7-4,2.4-7.6,2.3-10.4-.3-3.7,0-4.2,2-4.5,1.2-.2,2.2-.7,2.2-1.2s1.2-1,2.8-1.2c1.9-.2,2.8-.9,3-2.5.6-4.3,2.7-4.7,7.3-1.3,5,3.6,7.9,7.5,7.9,10.8s2.6,4,4.3,2.3,1.6-1.1,2.3-1.1c1.7,0,5.3,7.7,4.2,8.8s-.4,2,.3,3.5c.6,1.4.9,3.3.6,4.1-.9,2.3-3.5,1.9-3.9-.6-.2-1.2-.9-2.3-1.5-2.6-2.1-.6-2.7,2.7-.9,4.7,1.5,1.6,1.5,1.9.1,3.1-2.1,1.7-1.9,5.9.6,11.6,1.1,2.8,1.8,5.8,1.4,7.1-.6,2.5.4,3,2.3,1.1s2.6,1.4,2.6,9.9c.1,6.3.3,7.3,1.9,7.3s1.7-.9,1.7-5.4-.4-5.7-.9-6.1c-.5-.3-.9-3.8-.9-7.8.2-7.7-.7-11.7-2.4-11.7s-.8,1.3-.5,3.5c.3,1.9.1,3.7-.4,4.1-1.1.6-3.9-5.5-3.9-8.6s2.4-2.7,3.7-.8c.5.9.9.3,1.3-1.6.8-4.4,2.8-4.4,3.5.1.3,2.1,1,6,1.5,8.8.5,2.7,1.2,8.1,1.6,11.8.4,4.5,1,6.7,1.7,6.4,1.4-.5,1.2-10.6-.4-18.2-2.4-12.2-5.3-23.4-7-27.6-1.3-3.4-1.7-6-1.3-9.6q.6-4.9-8.7-11.9c-14.5-10.7-19.1-13.6-20.1-12.6-1.6,1.6.3,3.9,4.9,5.8,5.2,2.2,7.2,4.9,5.1,6.9-1.1,1.1-2.5.8-8.3-2-3.8-1.9-7.1-3.3-7.2-3.1-.1.1.2,1.9.8,4,.7,2.6.7,4.2.1,4.8-1.8,1.8-2.9-.1-3.6-6.2-.6-5.4-.5-6.2,1.7-8.6,1.4-1.5,2.3-3.4,2-4.4-.6-2.2,2-3.2,5.2-2,2.9,1.1,5.5.4,5.5-1.5s-2-2.4-5.1-1.8c-1.6.3-3-.1-3.8-1.1-1.5-1.8-3-2-5.1-.6ZM150.5,161.2c-1.1,3.6-2.5,4.5-2.5,1.7s.7-3.9,2.2-3.9.6,1,.3,2.2ZM143,177.6c0,.8-.4,1.4-1,1.4s-1-.9-1-2.1.5-1.7,1-1.4c.6.3,1,1.3,1,2.1ZM147.6,182.6c-.3.8-1,1.4-1.6,1.4-1.1,0-1.4-4.3-.3-5.4s2.6,2.3,1.9,4ZM139,181.6c0,.8-.5,1.2-1,.9-.6-.4-.8-1.1-.5-1.6.9-1.4,1.5-1.1,1.5.7ZM145.5,187.6c1.4.8,2,2.1,1.8,4.4,0,1.7-.4,3.4-.8,3.8-.7.8-2.6-1.9-1.9-2.9.2-.4,0-1-.6-1.4-.6-.3-1.3.1-1.6.9-1.2,3-2.4,1.6-2.4-2.7s.9-6.5,2.5-4.5c.6.7,1.9,1.8,3,2.4ZM150.7,188.2c-.3.8-.6.5-.6-.6-.1-1.1.2-1.7.5-1.3.3.3.4,1.2.1,1.9ZM134,189.5c0,.8-.4,1.5-1,1.5s-1-.7-1-1.5.5-1.5,1-1.5,1,.7,1,1.5ZM136.7,190.2c-.3.8-.6.5-.6-.6-.1-1.1.2-1.7.5-1.3.3.3.4,1.2.1,1.9Z"/>
  <path class="st0" d="M197,144.6c0,.9.7,1.4,1.7,1.2,2.5-.5,2.8-2.8.4-2.8s-2.1.6-2.1,1.6Z"/>
  <path class="st0" d="M180,181.9c0,2.3.4,2.9,1.5,2.5.8-.4,2.1-.1,2.9.5,1.6,1.4,2.6.4,2.6-2.6s-.6-2.3-1.9-2.3-2.6-.3-3.5-.6c-1.2-.5-1.6.1-1.6,2.5Z"/>
  <path class="st0" d="M205.6,181.9c-.7,1.1,2.1,11.9,3.6,13.5,1.7,2.1,2-3,.3-7.8-2-5.8-3-7.2-3.9-5.7Z"/>
  <path class="st0" d="M217.6,184c-.9,2.2.8,10.6,1.9,10,1.2-.6.8-7.6-.5-9.9-.7-1.4-.9-1.4-1.4-.1Z"/>
  <path class="st0" d="M212.5,188.1c1.5,9.8,1.8,11,2.9,10.6,2-.7,0-13.7-2.3-14.5-1-.3-1.2.5-.6,3.9Z"/>
  <path class="st0" d="M275.3,184.8c-4.1.4-4.3,2.5-.7,5.9,2.5,2.3,2.6,2.9,2,8-.7,5.7-3,11.3-4.6,11.3s-1,.9-1,2c0,5.1,5.4.4,9-7.8,1.6-3.7,1.9-5.7,1.4-10.9-.8-7.5-1.8-8.9-6.1-8.5Z"/>
  <path class="st0" d="M245.5,191.6c-1.5,3.3-3,8-3.5,10.6-1.1,5.7-3,9.6-5.9,12.2-2.4,2.2-2.8,4.6-.6,4.6s7.4-8,8.1-12c.4-1.6,1.1-3,1.5-3,.9,0,.4,3.4-1.2,7.8-1.2,3.2-1.1,5.4.2,5,.7-.2,2.4-4.5,3.9-9.6,1.5-5,3.1-9.7,3.7-10.4,1.4-1.9,3.7-9.7,3-10.4-1.2-1.2-2.5.7-4.7,6.8-3.8,10.6-5.7,9.8-2.4-1.1,2.1-7.3,1-7.6-2.1-.5Z"/>
  <path class="st0" d="M210,203.4c0,1.9.5,3.8,1,4.1.6.3,1,2.6,1,4.9s.6,4.8,1.5,5.6c1.5,1.3,1.5,2.5-.2,11.3-.4,2.4-.2,2.8,1.2,2.5,1.6-.3,5.2-8.8,5.4-12.6.1-.8,1-2.5,2-3.8,1.5-1.9,1.7-3.1,1.1-6-.5-2-1.4-4.2-2-4.8-1-.8-1.1-.1-.7,3.1.5,4.6-.9,6-1.8,1.8s-.7-3.7-1.1-5.1c-.3-1.8-.9-2.3-1.5-1.7s-.6,1.9.1,3.7c1.4,3.7,1.3,6.9-.2,6.4-.7-.3-1.7-3.1-2.3-6.3-1.1-6.6-3.5-8.8-3.5-3.1ZM218.5,220c-.3.5-1.1,1-1.6,1s-.7-.5-.4-1c.3-.6,1.1-1,1.6-1s.7.4.4,1Z"/>
  <path class="st0" d="M219,201.5c0,.8.5,1.5,1,1.5s1-.7,1-1.5-.4-1.5-1-1.5-1,.7-1,1.5Z"/>
  <path class="st0" d="M188.1,205.9c-1.1.7-1.1,1.8-.2,5.7,3.1,13,3.3,15,1,12.7s-1.6-3.4-2.2-6.2c-1.2-5.3-3.3-6.7-3-2.1.3,5.8,2.2,11.5,4.3,13.2,2.2,1.8,2.3,1.8,4.1-1.6s1.8-3.7-.1-11.3c-1-4.3-2-8.6-2.2-9.5-.2-1.2-.7-1.5-1.7-.9Z"/>
  <path class="st0" d="M176,215.4c0,1.5,2.4,2.8,3.4,1.9,1.3-1.4.5-3.3-1.4-3.3s-2,.6-2,1.4Z"/>
  <path class="st0" d="M179.7,219.6c-1,1,.5,10.8,1.9,12.5.8.8,1.4,3.4,1.4,5.7,0,4.4,1.1,6,2.8,3.9,1.2-1.4.1-8.3-2.2-14.2-.8-2.2-1.5-4.8-1.6-5.7,0-1.8-1.4-3.1-2.3-2.2Z"/>
  <path class="st0" d="M140,227c0,.5.5,2,1.1,3.3.8,1.8.8,3,0,4.5s-.7,2.3.4,3.2c2.8,2.3,4.8-5.8,2.5-10.1-1.1-1.9-4-2.7-4-.9Z"/>
  <path class="st0" d="M194.6,228.5c-.3.9-.6,4.8-.6,8.6,0,5.4.3,6.9,1.5,6.9,2,0,2.9-4.1,2.2-10.3-.7-5.5-2.1-7.8-3.1-5.2Z"/>
  <path class="st0" d="M162.5,234.9c-.3.6.2,1.6,1.1,2.3,8.9,7.2,10.6,10.7,10.6,22.7s.4,8.6,1.9,11c3.5,5.8,4.6,4.2,5.4-7.8.7-10.6.2-15.1-1.5-15.1s-1,1.2-1.2,2.7q-.4,2.8-1.7-.2c-3.2-7.4-4.7-9.9-8-13.1-3.6-3.4-5.5-4.2-6.6-2.5Z"/>
  <path class="st0" d="M189.9,234.2c-.1.2-.3,2-.4,4-.4,4,.6,5.6,2.3,3.5,1.1-1.4.4-7.7-.9-7.7s-.9.1-1,.2Z"/>
  <path class="st0" d="M218.8,234.5c-.3.3-.3,2.8,0,5.7.4,4.4.2,5.3-1.8,6.8-1.9,1.4-2.3,2.9-2.8,8.8-.4,6.2-.2,7.2,1.2,7.2s1.6-1,1.6-4c0-4.5,1-5.1,3.3-1.8,1.4,2.2,1.6,2.2,2.3.4.4-1,.2-2.7-.4-3.7-1.7-2.6-1.5-4.6.4-5.7,1.6-.9,1.4-3.6-1.2-13-.3-1.2-1.7-1.6-2.6-.7Z"/>
  <path class="st0" d="M133,242c-1.8,3.3.2,4.7,3.5,2.6,3-2,2.9-4-.3-4.4-1.3-.2-2.5.5-3.2,1.8Z"/>
  <path class="st0" d="M158.5,244.1c.4,1.3.9,3.7,1.2,5.4.3,1.6,1.3,3.9,2.3,5,1.7,1.8,2.4,4.8,2.1,8.4-.1,1.1-.4,1.1-1.6.1-1.4-1.1-1.6-.8-1.5,2.6.1,2.1,0,4.8-.2,5.9-.4,2.9,1.5,3.4,2.7.7.5-1.2,1.5-2.2,2.2-2.2s1.3-1.8,1.5-4.2c.2-2.3.9-4.3,1.6-4.6,1-.3,1.3.4,1,2.1-.1,1.5.2,2.5.7,2.4.9-.2,1.1-5.5.5-13.7-.2-2.6-.4-2.3-1.6,2.5-.6,2.7-.8,2.5-1.8-3-1.1-6-3.4-7.7-2.8-2,.5,4.3-1.5,2-2.6-3-.5-2.7-1.4-4.1-2.6-4.3-1.6-.3-1.8,0-1.1,1.9Z"/>
  <path class="st0" d="M138.6,246.6c-.7,1.7.4,8.3,1.5,9,.5.3.9,2.2.9,4.4,0,3.3.4,3.9,2.6,4.4,3.5.9,6.6-1.8,5.8-4.9-.3-1.3-.1-2.6.5-2.9,1.4-.9,1.4-5.8,0-8.9-.9-2-1.8-2.3-5.9-2.4-3.2,0-5.1.4-5.4,1.3Z"/>
  <path class="st0" d="M169,247.1c0,.5.5.7,1,.4.6-.3,1-.8,1-1.1s-.4-.4-1-.4-1,.5-1,1.1Z"/>
  <path class="st0" d="M208.6,253.2c-.3.7-.7,3.5-1.1,6.3-.3,2.7-1.2,6.8-1.8,8.9-.9,3.1-.8,4.1.1,4.4,1.7.5,1.5,4.7-.3,6.2-.8.7-1.5,1.7-1.5,2.3s-.8,1.9-1.7,2.9c-1.2,1.3-1.3,2.2-.6,2.9,1.8,1.8,3.3.1,6.9-7.8,3.9-8.6,3.9-8.3,1.8-8.3s-1.5-.7-1-3.3c1.5-7.3,1.8-14.5.7-15.1-.6-.4-1.3-.1-1.5.6Z"/>
  <path class="st0" d="M202.4,255.1c-.3.6-1.5.9-2.5.6-1.2-.3-1.9,0-1.9.9s-.6,1.7-1.4,2c-2,.8-5.6,7.9-5.6,11.1s.2,2.4,1.7,1.2c1.2-1.1,1.7-1.1,2-.2.3,1,.9,1,2.3.1,3-1.9,3.2-.5.8,4-2.3,4.1-2.1,5.9.6,4.9,1.8-.7,4.4-8.7,5-15.7.3-3,.8-6.5,1.2-7.8.7-2.3-.9-3.1-2.2-1.1Z"/>
  <path class="st0" d="M185.5,264.7c-1.6,8.3-2.9,12.3-6,18.5-3.9,7.7-4.1,8.8-2.1,8.8s5.8-5,5.2-6.7c-.3-.7.3-2.8,1.3-4.5,2.2-3.9,5.5-16.4,4.6-17.8-1.1-1.8-2.5-1-3,1.7Z"/>
  <path class="st0" d="M215,267.9c-1.4,2.8-1.3,5.1.4,4.5,1.1-.4,3.6-4.5,3.6-5.9s-3.1-.2-4,1.4Z"/>
  <path class="st0" d="M142.5,281.2c-.8,2.3,0,9.3,1,9.3s2.6-8.4,1.8-9.8c-.7-1.1-2.3-.8-2.8.5Z"/>
  <path class="st0" d="M154.6,284.2c-.1.7-1.1,3.7-2,6.7-1.3,3.8-1.5,5.6-.7,6.4s1.2.9,1.4.6c1.1-1.2,4.6-13.3,4.1-14-.8-1.3-2.4-1.1-2.8.3Z"/>
  <path class="st0" d="M123.1,299.9c-.6,1-1.3,4-1.6,6.6-.5,4.1-.4,4.6,1.2,4.3,1.2-.2,1.8-1.3,1.9-3.3.1-1.7.4-4.2.8-5.6.9-3.3-.9-4.8-2.3-2Z"/>
  <path class="st0" d="M180.3,407.2c-2.3,3.7-3.1,5.9-2.6,7.8.6,2.3-1.5,2.8-3.6.7s-1.6-.8-2.8,1c-.9,1.3-2.4,2.3-3.5,2.3q-2.1,0,.7,4.7c2.3,3.8,3.5,4.2,3.5,1s1.5-5.1,2.9-4.3c.6.4,1.1,2,1.1,3.6s.4,3.1.8,3.4c.4.2,4.1,0,8.2-.5,4.8-.6,7.7-.6,8.4.1,1.6,1.6,5.6,1.2,5.6-.5s1.2-1.9,3.3.5c2.1,2.5,4.7,1.6,4.7-1.7s-.5-2.4-1.7-2.2c-3.4.3-4.3-.1-4.3-2s-.7-2.1-1.5-2.5c-.8-.3-1.5-1.7-1.5-3.1s-.4-2.5-1-2.5c-1.4,0-2.3,4.6-1.7,8.7q.6,3.6-1.6,1.6c-1.2-1.1-3.2-2.6-4.4-3.2-2.7-1.4-2.9-3.3-.8-5.5.8-.8,1.5-2.1,1.5-3s.5-1.8,1.1-2.2c.9-.5,1,.3.5,3-.4,2.3-.3,3.6.4,3.6s1-.9,1-2,.7-2,1.5-2c2.4,0,1.8-1.7-1.4-3.9-3.3-2.4-11.5-2.9-12.8-.9ZM184.8,413.3c.2,1.5-.1,2.7-.6,2.7-1.7,0-3.4-2.9-2.8-4.6.9-2.3,3.1-1.1,3.4,1.9ZM183,420.9c0,2.1-2.3,4.4-3.3,3.4-.4-.3-.7-2.1-.7-4,0-3.1.2-3.3,2-2.3,1.1.6,2,1.9,2,2.9Z"/>
  <path class="st0" d="M209.7,424.7c-2.4,2.3,1.2,5.5,3.8,3.3,1.2-1,1.3-1.6.4-2.6-1.2-1.5-3.1-1.8-4.2-.7Z"/>
  <path class="st0" d="M217,426.1c0,1.5,6.6,4.3,8.5,3.5.9-.3,1.5-1.3,1.3-2.3-.2-1.2-1.5-1.7-5-1.9-2.7-.2-4.8.1-4.8.7Z"/>
</svg>